<svg width="40" height="40" viewBox="0 0 40 40" fill="none" xmlns="http://www.w3.org/2000/svg">
<path d="M33.1182 26.7333C33.133 26.6963 33.2515 26.4148 33.37 26.111C33.5256 25.8517 33.6959 25.5702 33.9256 25.2295C33.9479 25.2369 33.97 25.2443 33.9997 25.2592C33.6886 25.8814 33.2812 26.6592 33.1182 26.7333Z" fill="black"/>
<mask id="mask0_105_783" style="mask-type:luminance" maskUnits="userSpaceOnUse" x="24" y="11" width="14" height="25">
<path d="M24.0669 11.2998H37.3852V35.8998H24.0669V11.2998Z" fill="white"/>
</mask>
<g mask="url(#mask0_105_783)">
<path d="M37.1569 17.3034C37.431 18.9478 37.468 20.5998 37.2459 22.2591C36.8236 25.4665 35.4977 28.2887 33.5349 30.8294C32.7941 31.785 31.9275 32.622 30.9646 33.3553C29.4164 34.533 27.7127 35.3553 25.8016 35.7183C25.2385 35.822 24.6534 35.8665 24.0757 35.8961C24.5349 35.5776 25.0831 35.5479 25.5867 35.3997C26.6608 35.0961 27.7275 34.733 28.6904 34.17C30.0755 33.3626 31.3867 32.4441 32.483 31.2441C34.5941 28.9182 36.0314 26.2591 36.6534 23.1701C37.1201 20.8665 37.0682 18.5774 36.5201 16.2961C36.2757 15.2591 36.0682 14.2146 35.6756 13.222C35.4238 12.5997 35.1498 11.9997 34.8238 11.422L35.0535 11.3184C36.1126 13.1852 36.8015 15.1777 37.1571 17.3037" fill="black"/>
</g>
<path d="M33.2075 13.7402C34.126 15.5402 34.5706 17.4586 34.5706 19.4662C34.326 16.9477 34.0816 15.9479 33.2075 13.7402Z" fill="black"/>
<path d="M33.9932 25.252H34.0006C33.971 25.3704 33.6673 26.0223 33.6006 26.1261C33.1932 26.815 32.5932 27.6891 32.0747 28.3483C31.8229 28.2891 32.4673 27.6002 32.6378 27.3114C32.9267 26.8744 33.1193 26.5262 33.3637 26.1114C33.2452 26.415 33.134 26.6965 33.1119 26.7336C33.2822 26.6594 33.6896 25.8817 33.9932 25.252" fill="black"/>
<path d="M33.7698 17.3924C34.4734 19.9257 34.355 22.4074 33.2957 24.822C33.1031 25.2664 32.8513 25.6813 32.629 26.111C32.6068 26.1554 32.5624 26.1999 32.4883 26.222C32.5105 26.1479 32.5327 26.0739 32.5624 25.9998C33.1254 24.5554 33.466 23.059 33.5921 21.5108C33.7551 19.57 33.5624 17.6664 32.9995 15.8071L33.2884 15.7256C33.4513 16.2738 33.6143 16.8294 33.7698 17.3923" fill="black"/>
<mask id="mask1_105_783" style="mask-type:luminance" maskUnits="userSpaceOnUse" x="2" y="2" width="35" height="35">
<path d="M2.71826 2.65137H36.4649V36.7314H2.71826V2.65137Z" fill="white"/>
</mask>
<g mask="url(#mask1_105_783)">
<path d="M36.2134 17.1626C35.9764 15.6219 35.6431 14.1034 35.0357 12.659C34.6875 11.8367 34.2357 11.0738 33.7542 10.3256C33.6505 10.1626 33.569 9.98488 33.4727 9.80714C33.5024 9.78488 33.5245 9.77016 33.5542 9.7479C33.6875 9.88123 33.8283 9.99972 33.9468 10.1405C34.2801 10.5405 34.569 10.9702 34.8209 11.422L35.0505 11.3183C34.8061 10.8886 34.5469 10.4739 34.2654 10.0591C33.169 8.45165 31.8579 7.05909 30.258 5.94075C28.8432 4.95559 27.3024 4.21485 25.6654 3.65925C23.3617 2.87409 21.0137 2.48895 18.569 2.68895C16.569 2.85197 14.7174 3.39259 12.984 4.24455C12.0804 4.69639 11.2063 5.22972 10.3618 5.83712C9.21361 6.67409 8.12481 7.58529 7.18404 8.65939C6.34707 9.60755 5.57661 10.615 5.02101 11.7558C4.28024 13.2891 3.87284 14.9335 3.59131 16.6001C3.4654 17.3557 3.34691 18.1186 3.22101 18.8742C3.20616 18.9705 3.15434 19.0593 3.11736 19.1557C3.0951 19.1483 3.07296 19.1409 3.05069 19.1334C3.08767 18.6445 3.10252 18.1557 3.16176 17.6742C3.30994 16.3334 3.62099 15.0372 4.04326 13.7559C4.56916 12.1559 5.21356 10.6225 6.25069 9.2742C6.36918 9.12602 6.46554 8.96313 6.5766 8.80753C6.44327 8.95571 6.30994 9.10388 6.18404 9.25936C5.1692 10.5186 4.421 11.926 3.84327 13.4297C2.88767 15.9482 2.5469 18.526 2.79887 21.1704C2.99145 23.2001 3.4878 25.1554 4.32477 27.0147C4.69507 27.837 5.14704 28.2221 5.5322 29.037C5.9025 29.8221 6.32477 30.4962 6.84327 31.1926C7.2951 31.8 7.7766 32.1703 8.24327 32.7703C8.58404 33.2 8.7766 33.2814 9.12477 33.6962C9.19144 33.7777 9.47294 34.1185 9.5766 34.148C9.76176 34.1924 9.96917 34.4444 10.1396 34.5183C10.4952 34.6665 10.836 34.8591 11.184 35.0368C11.821 35.3627 12.3025 35.7183 12.9396 36.0368C13.0137 36.0738 13.3322 36.1479 13.4433 36.1776C13.384 36.0591 13.2803 36.1332 13.2136 35.9924C13.5172 36.0814 13.7469 36.1406 14.0654 36.2443C14.4803 36.3776 15.258 36.6073 15.6803 36.7258C15.8136 36.7627 15.7395 36.6591 15.8803 36.6591C15.8877 36.6442 16.1099 36.6961 16.1172 36.6813C16.0357 36.6147 16.258 36.6147 16.1616 36.5332C16.2135 36.5035 16.2431 36.4888 16.2801 36.4665C16.695 36.1702 17.1245 36.1035 17.532 35.7924C17.6727 35.6888 17.7986 35.5332 17.7468 35.3183C17.6727 35.022 17.6209 34.7109 17.5098 34.4219C17.4135 34.185 17.2876 33.9256 17.095 33.7701C16.6653 33.4293 16.6209 32.9998 16.1691 32.6886C15.8506 32.4738 14.858 32.1109 14.5617 31.8663C14.1617 31.5182 13.3394 31.5107 12.9617 31.1404C12.5024 30.6886 11.7914 30.2663 11.3839 29.7701C8.39875 27.1627 7.69492 24.4885 7.25792 22.4591C7.19125 22.1776 7.21352 21.2222 7.14685 20.9035C7.09503 20.9851 7.06534 21.0295 7.01352 21.1035C6.99125 20.9925 6.97654 20.9258 6.96912 20.8517C6.79138 18.8148 7.0061 16.8221 7.70988 14.8961C7.95428 14.222 8.24322 13.585 8.58398 12.985C9.82838 10.7406 11.6729 9.01465 13.9767 7.68865C14.8064 7.20715 15.673 6.85169 16.5618 6.59972C17.8729 6.22942 19.2359 6.10335 20.6435 6.16275C22.5102 6.24426 24.2732 6.76275 25.9618 7.52579C27.1988 8.08139 28.3693 8.76275 29.3395 9.71835C29.8728 10.2443 30.3395 10.8443 30.7987 11.4369C31.7469 12.6666 32.4431 14.0369 32.9246 15.5109C32.9543 15.6072 32.9839 15.7034 33.0136 15.7998L33.3025 15.7183C33.2284 15.4665 33.1617 15.2146 33.0876 14.9701C33.058 14.8665 33.0654 14.7478 33.0507 14.6071C33.1766 14.6515 33.2432 14.6812 33.3322 14.7107C33.4432 14.3551 33.2432 14.0589 33.2211 13.7404C34.1396 15.5404 34.5841 17.4588 34.5841 19.4664C34.5841 20.7034 34.4878 21.9405 34.3619 23.1701C34.2878 23.859 33.8434 24.6071 33.6878 25.2812C33.6804 25.333 33.5248 25.733 33.3767 26.096C33.5323 25.8367 33.7026 25.5552 33.9323 25.2145C33.9546 25.2219 33.9767 25.2293 34.0064 25.2442C34.1916 24.859 34.3323 24.5331 34.3546 24.4516C34.5915 23.6219 34.7768 23.2293 34.8361 22.3627C34.8805 21.7183 34.9324 21.0812 34.9397 20.4442C34.9471 19.5478 34.8953 19.0219 34.8361 18.1257C34.7917 17.5331 34.5842 16.5701 34.4583 15.9923C34.0732 14.3331 33.288 12.8516 32.3991 11.4147C32.2509 11.1777 32.1176 10.9332 31.9621 10.6591C32.9029 10.8147 35.1621 14.9701 35.2362 16.5851C35.0437 16.1184 34.8585 15.6666 34.6732 15.2073C34.6435 15.2148 34.6214 15.2296 34.5917 15.237C35.3399 17.5852 35.4287 20 35.362 22.437C35.4064 22.0963 35.4583 21.7629 35.5027 21.4222C35.5324 21.7037 35.5471 21.9778 35.5027 22.2519C35.4138 22.7852 35.3471 23.3334 35.1471 23.8222C35.0212 24.1258 34.9249 24.437 34.799 24.7407C34.4879 25.4963 34.199 26.2666 33.8434 26.9925C33.51 27.6666 33.1323 28.3259 32.71 28.9556C32.3767 29.4592 31.9175 29.8815 31.5767 30.3778C31.2064 30.9112 30.747 31.326 30.2434 31.7037C29.71 32.1037 29.1767 32.5112 28.7026 32.9778C28.3693 33.3112 27.999 33.5704 27.5693 33.8445C27.6359 33.9037 27.6952 34.0001 27.7396 33.9927C27.9619 33.9483 28.1988 34.0297 28.4063 33.8816C28.7396 33.6446 29.1396 33.489 29.4285 33.2075C29.747 32.9039 30.0655 32.6075 30.4434 32.4001C31.2434 31.9704 31.8656 31.3408 32.399 30.6298C33.0434 29.7705 33.6212 28.8595 34.2434 27.9779C35.4359 26.2964 36.0582 24.4149 36.3249 22.3929C36.5469 20.6592 36.4802 18.9109 36.2135 17.1629L36.2134 17.1626ZM32.1468 12.022C32.3024 12.2812 32.5986 12.4664 32.5986 12.822C32.5763 12.8368 32.5542 12.8442 32.5319 12.859C32.3837 12.5923 32.2356 12.3256 32.0875 12.059C32.1097 12.0515 32.1319 12.0367 32.1468 12.022ZM31.6578 11.333C31.5171 11.1849 31.3689 11.0294 31.2281 10.8812C29.6283 9.14788 27.7615 7.77744 25.5615 6.88854C25.0059 6.66628 24.4059 6.56263 23.8281 6.38491C23.5392 6.29598 23.2651 6.16264 22.9837 6.05158C22.9986 6.02189 23.0134 5.98491 23.0207 5.95522C23.6133 6.11824 24.2133 6.27371 24.7984 6.45159C25.9169 6.7775 27.0133 7.18492 28.0281 7.76266C29.1245 8.39236 30.0651 9.21449 30.88 10.1849C31.1466 10.496 31.3763 10.8368 31.6281 11.1701C31.6577 11.1996 31.68 11.2515 31.6577 11.333L31.6578 11.333Z" fill="black"/>
</g>
<path d="M27.4668 33.8799C27.5186 34.0132 27.5704 34.1169 27.3927 34.1688C27.3704 34.1763 27.3409 34.1985 27.3483 34.2132C27.3705 34.5096 27.1186 34.5169 26.9408 34.591C26.6001 34.7317 26.2519 34.8428 25.9039 34.9613C25.889 34.9316 25.8742 34.8946 25.8521 34.8649C26.3853 34.5317 26.9186 34.2132 27.4668 33.8799Z" fill="black"/>
<path d="M18.9556 6.4814C19.3778 6.19246 22.1333 6.36291 22.4666 6.65171C21.311 6.59989 20.1629 6.54064 18.9556 6.4814Z" fill="black"/>
<path d="M16.6151 6.80768C16.7707 6.76328 16.941 6.74844 17.0966 6.71875C15.4299 7.21512 13.9558 8.02982 12.6076 9.11875C11.3112 10.1706 10.2224 11.4151 9.19258 12.7188C9.10364 12.8298 9.00742 12.9336 8.91107 13.0447C8.89622 13.0595 8.87409 13.0669 8.78516 13.1039C8.88151 12.9483 8.94076 12.8447 9.00742 12.7483C10.0371 11.2594 11.2593 9.95574 12.6964 8.86664C13.8816 7.9557 15.1557 7.20754 16.6148 6.80754" fill="black"/>
<mask id="mask2_105_783" style="mask-type:luminance" maskUnits="userSpaceOnUse" x="6" y="2" width="12" height="7">
<path d="M6.6001 2.65137H17.8668V8.76637H6.6001V2.65137Z" fill="white"/>
</mask>
<g mask="url(#mask2_105_783)">
<path d="M17.8372 2.51074C17.5113 2.67376 15.0447 3.13301 14.7187 3.28848C14.1262 3.57741 13.5336 3.86621 12.941 4.16258C12.4002 4.42924 11.8669 4.69591 11.3262 4.97001C10.0669 5.60697 8.95588 6.45894 7.93352 7.42924C7.54095 7.80697 7.18535 8.22181 6.80762 8.61441C6.75579 8.66623 6.69655 8.71076 6.62988 8.76258C6.84473 8.50334 7.03732 8.23668 7.26685 7.99228C8.17048 7.01455 9.15578 6.14789 10.2224 5.37002C11.6447 4.32562 13.1927 3.52562 14.8818 2.99229C15.141 2.91078 16.0743 2.68864 16.3559 2.65895" fill="black"/>
</g>
<path d="M6.61523 8.77757C6.62247 8.77033 6.62971 8.7631 6.64418 8.75586C6.63682 8.76322 6.62247 8.77757 6.61523 8.77757Z" fill="black"/>
<path d="M6.6151 8.77734C6.60768 8.79961 6.59284 8.81432 6.57812 8.82917C6.59284 8.81445 6.60026 8.79219 6.6151 8.77734Z" fill="black"/>
<path d="M32.3628 29.4594C32.3405 29.4445 33.3109 28.2668 33.2887 28.252C32.4664 28.9335 30.985 30.5705 30.3331 31.1186C30.0812 31.3483 29.6441 31.652 29.4961 31.9556C30.185 31.4667 31.0072 30.8 31.5925 30.2592C31.6738 30.1704 32.3034 29.5631 32.3628 29.4594" fill="black"/>
<path d="M33.4301 24.0518C32.3931 26.6518 30.6524 29.3628 28.8228 31.0368C31.2523 29.3775 32.8004 26.8294 33.4301 24.0518Z" fill="black"/>
<path d="M33.7198 25.5557C32.7939 27.6372 30.0901 30.5557 28.3271 32.0593C30.6902 30.4816 33.2011 27.711 33.7198 25.5557Z" fill="black"/>
<path d="M13.1333 31.1701C13.6222 30.8886 16.163 32.1479 16.4666 32.9627C15.4741 32.4591 15.4592 32.1404 14.6074 31.7627" fill="black"/>
</svg>
