<svg width="836" height="877" viewBox="0 0 836 877" fill="none" xmlns="http://www.w3.org/2000/svg">
<path d="M388.41 484.95C385.66 484.95 383.55 484.45 380.92 483.18C380.07 482.77 379.08 482.52 378.05 482.27C376.25 481.83 374.4 481.37 373.11 479.95C371.47 478.15 370.55 475.8 369.66 473.53L369.22 472.42C368.09 469.63 367.94 466.72 367.94 464.25C367.94 461.78 368.88 459.6 369.79 457.6L370.09 456.93C371.24 454.36 372.35 452.41 374.31 450.68C376.2 449.01 378.38 448.24 380.69 447.43L381.06 447.3C383.13 446.56 385.46 445.88 388.42 445.88H389.47C391.7 445.86 393.8 445.84 395.85 446.59C396.64 446.88 397.5 447.07 398.42 447.27C400.24 447.67 402.13 448.09 403.43 449.35C404.99 450.85 405.81 453.07 406.61 455.22C406.78 455.68 406.95 456.13 407.12 456.56C407.76 458.19 407.6 459.91 407.42 461.72C407.34 462.54 407.26 463.4 407.26 464.24C407.26 465.16 407.41 466.14 407.55 467.09C407.82 468.9 408.1 470.76 407.47 472.5C406.85 474.23 405.36 475.31 403.91 476.36C403.02 477.01 402.18 477.62 401.57 478.35L401.06 478.96C399.52 480.82 398.2 482.43 395.95 483.57C393.44 484.83 391.16 484.93 388.44 484.93L388.41 484.95ZM390.47 447.2C390.14 447.2 389.81 447.2 389.47 447.2H388.41C385.65 447.2 383.45 447.85 381.49 448.55L381.12 448.68C378.84 449.48 376.87 450.18 375.17 451.68C373.39 453.26 372.36 455.07 371.28 457.48L370.97 458.15C370.08 460.11 369.24 461.95 369.24 464.25C369.24 466.55 369.38 469.34 370.42 471.92L370.87 473.04C371.72 475.2 372.59 477.43 374.07 479.05C375.08 480.16 376.67 480.56 378.35 480.97C379.41 481.23 380.5 481.5 381.48 481.97C383.92 483.15 385.87 483.61 388.4 483.61C390.93 483.61 393.06 483.52 395.32 482.39C397.32 481.38 398.57 479.87 400.01 478.13L400.52 477.51C401.24 476.65 402.19 475.96 403.1 475.3C404.44 474.33 405.71 473.41 406.19 472.07C406.7 470.64 406.46 469.02 406.21 467.3C406.06 466.3 405.91 465.27 405.91 464.25C405.91 463.34 406 462.46 406.08 461.6C406.24 459.95 406.4 458.39 405.87 457.05C405.69 456.61 405.53 456.15 405.35 455.69C404.61 453.68 403.84 451.6 402.49 450.31C401.46 449.32 399.83 448.95 398.11 448.57C397.19 448.36 396.24 448.15 395.38 447.83C393.84 447.27 392.25 447.19 390.47 447.19V447.2Z" fill="#AEBA75"/>
<path d="M381.01 496.53C380.37 496.53 379.74 496.44 379.12 496.2C376.82 495.33 374.92 493.63 373.07 491.98C372.45 491.43 371.85 490.89 371.23 490.38C368.88 488.45 367.16 485.93 365.51 483.48L365.2 483.03C363.83 481.01 363.2 478.74 362.58 476.56C362.37 475.81 362.16 475.05 361.91 474.29L361.75 473.78C360.85 470.99 359.99 468.35 359.99 465.26C359.99 462.59 360.75 460.51 361.56 458.3C361.73 457.83 361.9 457.36 362.07 456.87C363.09 453.93 364.1 451.64 366 449.3C366.39 448.81 366.77 448.32 367.14 447.84C368.56 445.99 369.9 444.24 371.99 442.92C372.91 442.34 373.76 441.45 374.66 440.51C376.07 439.04 377.53 437.52 379.45 436.99C381.38 436.45 383.55 436.67 385.65 436.89C386.73 437 387.86 437.11 388.89 437.11C390.19 437.11 391.6 436.94 392.97 436.78C395.63 436.47 398.4 436.14 400.65 436.97C403.86 438.15 408.31 440.39 411.16 443.13C414.05 445.91 416.47 450.44 417.66 453.47C418.48 455.53 417.68 457.99 416.91 460.37C416.38 462.03 415.82 463.74 415.82 465.27C415.82 466.47 416.13 467.71 416.45 469.02C416.93 470.94 417.42 472.93 416.88 474.83C416.34 476.73 414.69 477.99 413.09 479.2C411.93 480.09 410.83 480.92 410.2 481.95C409.8 482.6 409.44 483.24 409.08 483.86C407.98 485.8 406.94 487.63 405.13 489.22C402.97 491.12 400.79 491.97 398.26 492.95L397.34 493.31C394.41 494.46 392.12 494.89 388.87 494.89C387.65 494.89 386.32 495.3 385.03 495.69C383.68 496.1 382.31 496.53 380.96 496.53H381.01ZM382.28 437.98C381.42 437.98 380.58 438.05 379.83 438.27C378.26 438.71 376.92 440.09 375.64 441.43C374.72 442.38 373.78 443.37 372.72 444.04C370.83 445.24 369.55 446.9 368.21 448.65C367.83 449.14 367.45 449.64 367.05 450.14C365.27 452.34 364.31 454.51 363.34 457.31C363.17 457.8 362.99 458.28 362.82 458.76C362.05 460.86 361.33 462.84 361.33 465.27C361.33 468.15 362.11 470.57 363.02 473.38L363.18 473.89C363.43 474.66 363.65 475.44 363.86 476.2C364.47 478.38 365.05 480.44 366.3 482.29L366.61 482.74C368.29 485.21 369.87 487.55 372.07 489.36C372.7 489.88 373.33 490.43 373.95 490.99C375.71 492.55 377.52 494.17 379.59 494.96C381.08 495.53 382.83 495 384.69 494.43C386.07 494.01 387.49 493.57 388.92 493.57C391.99 493.57 394.15 493.17 396.91 492.08L397.84 491.72C400.25 490.78 402.34 489.98 404.32 488.23C405.96 486.79 406.9 485.13 407.99 483.21C408.35 482.57 408.72 481.92 409.13 481.26C409.89 480.02 411.14 479.08 412.34 478.16C413.83 477.03 415.24 475.95 415.66 474.47C416.1 472.91 415.67 471.18 415.22 469.34C414.89 468.01 414.55 466.63 414.55 465.27C414.55 463.54 415.13 461.72 415.7 459.97C416.43 457.71 417.12 455.58 416.47 453.96C414.96 450.14 412.53 446.26 410.28 444.09C408.05 441.95 404.11 439.64 400.24 438.21C398.27 437.49 395.68 437.79 393.17 438.09C391.76 438.25 390.31 438.43 388.93 438.43C387.83 438.43 386.67 438.31 385.56 438.2C384.47 438.09 383.35 437.98 382.29 437.98H382.28Z" fill="#AEBA75"/>
<path d="M379.23 501.64C378.46 501.64 377.7 501.53 376.97 501.25C374.11 500.18 371.7 498.1 369.38 496.09C368.6 495.41 367.82 494.74 367.04 494.11C364.04 491.72 361.85 488.56 359.72 485.51L359.39 485.03C357.63 482.51 356.84 479.8 356.01 476.93C355.74 476.01 355.47 475.08 355.17 474.15L355 473.65C353.83 470.12 352.73 466.79 352.73 462.9C352.73 457.89 354.47 454.12 356.31 450.13L356.38 449.97C358.58 445.2 360.83 442.08 364.18 439.21L365.02 438.49C368.23 435.71 371.27 433.09 375.55 431.62C377.03 431.11 378.52 430.31 380.1 429.47C382.98 427.93 385.96 426.34 389.23 426.34C392.99 426.34 396.69 427.85 399.95 429.17C401 429.6 402.02 430.01 403 430.36C404.35 430.84 405.83 431.22 407.39 431.62C410.87 432.51 414.47 433.42 416.83 435.63C419.75 438.36 423.85 443.24 425.79 447.99C426.82 450.51 425.75 453.61 424.72 456.61C423.99 458.75 423.22 460.95 423.22 462.9C423.22 464.41 423.61 466.04 423.99 467.61C424.57 470.01 425.17 472.5 424.48 474.84C423.8 477.17 421.74 478.71 419.75 480.21C418.28 481.31 416.89 482.36 416.06 483.66C415.56 484.45 415.1 485.23 414.66 485.99C413.25 488.41 411.91 490.69 409.62 492.65C406.91 494.97 404.16 496 400.97 497.2L399.82 497.63C396.16 499.03 393.29 499.55 389.22 499.55C387.65 499.55 385.96 500.07 384.33 500.57C382.65 501.09 380.93 501.62 379.26 501.62L379.23 501.64ZM389.19 427.65C386.26 427.65 383.43 429.17 380.69 430.63C379.14 431.46 377.53 432.32 375.95 432.86C371.92 434.25 368.97 436.79 365.85 439.48L365.01 440.2C361.82 442.94 359.66 445.93 357.55 450.51L357.48 450.67C355.62 454.7 354.02 458.17 354.02 462.89C354.02 466.57 355.04 469.65 356.23 473.22L356.4 473.73C356.71 474.67 356.99 475.62 357.26 476.55C358.07 479.31 358.82 481.92 360.46 484.26L360.79 484.74C362.96 487.85 365.01 490.79 367.85 493.06C368.65 493.7 369.44 494.38 370.23 495.07C372.47 497.01 374.78 499.01 377.42 500C379.37 500.72 381.57 500.04 383.91 499.32C385.63 498.79 387.42 498.24 389.19 498.24C393.08 498.24 395.83 497.74 399.32 496.4L400.47 495.97C403.54 494.81 406.19 493.82 408.73 491.65C410.85 489.84 412.13 487.65 413.49 485.33C413.94 484.56 414.41 483.77 414.91 482.96C415.86 481.45 417.42 480.29 418.92 479.16C420.82 477.73 422.62 476.38 423.18 474.48C423.77 472.47 423.23 470.26 422.67 467.92C422.27 466.27 421.86 464.57 421.86 462.9C421.86 460.73 422.66 458.41 423.43 456.18C424.43 453.29 425.37 450.55 424.53 448.49C422.68 443.93 418.72 439.24 415.89 436.6C413.78 434.62 410.34 433.75 407.02 432.9C405.49 432.51 403.92 432.11 402.51 431.61C401.51 431.25 400.47 430.83 399.4 430.4C396.1 429.06 392.68 427.66 389.17 427.66L389.19 427.65Z" fill="#AEBA75"/>
<path d="M377.39 519.8C376.28 519.8 375.18 519.64 374.11 519.24C369.87 517.67 366.28 514.56 362.82 511.55C361.65 510.53 360.48 509.52 359.3 508.58C354.84 505.03 351.56 500.31 348.38 495.75L347.88 495.03C345.28 491.3 344.1 487.26 342.86 482.99C342.46 481.61 342.05 480.21 341.59 478.82L341.33 478.04C339.59 472.78 337.94 467.82 337.94 462.05C337.94 457.06 339.41 453.14 340.96 448.98C341.27 448.15 341.58 447.31 341.89 446.46C343.82 441.04 345.75 436.81 349.36 432.47C350.11 431.58 350.82 430.68 351.52 429.79C354.23 426.37 356.79 423.14 360.69 420.74C362.49 419.63 364.14 417.96 365.88 416.19C368.51 413.52 371.23 410.77 374.71 409.83C378.22 408.89 382.22 409.3 386.1 409.69C388.17 409.9 390.32 410.12 392.32 410.12C394.6 410.12 397.12 409.59 399.56 409.07C403.13 408.31 406.82 407.53 409.94 408.39C413.19 409.29 421.32 411.75 426.68 415.27C432.53 419.12 438.03 426.13 439.58 428.18C441.53 430.77 440.86 434.74 440.21 438.57C439.71 441.51 439.2 444.55 439.9 446.79L440.23 447.86C441.65 452.37 442.99 456.63 442.99 462.06C442.99 464.37 443.58 466.83 444.15 469.2C445.01 472.76 445.89 476.45 444.89 479.88C443.9 483.26 440.86 485.55 437.91 487.76C435.77 489.36 433.57 491.02 432.3 493.02C431.55 494.21 430.86 495.39 430.19 496.53C428.08 500.13 426.09 503.53 422.7 506.43C418.68 509.86 414.59 511.4 409.85 513.19L408.11 513.85C402.66 515.94 398.38 516.71 392.32 516.71C389.92 516.71 387.36 517.5 384.89 518.26C382.4 519.03 379.84 519.81 377.38 519.81L377.39 519.8ZM379.73 410.56C378.1 410.56 376.52 410.7 375.06 411.09C371.93 411.93 369.34 414.56 366.83 417.1C365.11 418.85 363.33 420.65 361.39 421.85C357.68 424.13 355.2 427.27 352.56 430.6C351.85 431.5 351.13 432.41 350.38 433.31C346.88 437.5 345.01 441.62 343.13 446.9C342.82 447.76 342.51 448.6 342.2 449.44C340.69 453.48 339.26 457.3 339.26 462.05C339.26 467.61 340.8 472.25 342.58 477.63L342.84 478.41C343.31 479.82 343.72 481.23 344.12 482.63C345.33 486.8 346.48 490.73 348.96 494.29L349.46 495.01C352.73 499.7 355.81 504.13 360.12 507.57C361.31 508.52 362.49 509.54 363.68 510.57C367.06 513.5 370.55 516.53 374.57 518.02C377.58 519.14 380.94 518.1 384.51 517C387.07 516.21 389.73 515.39 392.33 515.39C398.21 515.39 402.36 514.64 407.65 512.62L409.4 511.96C414.02 510.22 418.02 508.72 421.86 505.43C425.08 502.68 427.02 499.37 429.07 495.87C429.75 494.71 430.44 493.53 431.2 492.32C432.6 490.11 434.9 488.38 437.13 486.71C440.03 484.54 442.77 482.48 443.63 479.52C444.53 476.42 443.73 473.07 442.87 469.51C442.28 467.06 441.67 464.52 441.67 462.06C441.67 456.84 440.42 452.86 438.97 448.26L438.64 447.19C437.84 444.65 438.39 441.45 438.91 438.36C439.54 434.64 440.14 431.12 438.53 428.98C434.49 423.61 429.79 418.9 425.96 416.38C420.76 412.96 412.79 410.55 409.6 409.67C406.79 408.9 403.41 409.61 399.84 410.37C397.34 410.9 394.75 411.45 392.33 411.45C390.26 411.45 388.08 411.23 385.98 411.02C383.9 410.81 381.77 410.59 379.73 410.59V410.56Z" fill="#AEBA75"/>
<path d="M377.32 526.13C376.15 526.13 374.99 525.97 373.87 525.57C369.07 523.88 364.98 520.49 361.02 517.21C359.64 516.07 358.22 514.89 356.82 513.83C351.66 509.92 347.82 504.7 344.11 499.64L343.48 498.78C340.39 494.58 338.98 490.01 337.48 485.16C337 483.63 336.53 482.09 335.99 480.54L335.74 479.82C333.65 473.84 331.68 468.2 331.68 461.6C331.68 455.89 333.43 451.44 335.29 446.73C335.64 445.83 336 444.93 336.35 444C338.64 437.94 340.92 433.21 345.2 428.35C346.09 427.34 346.94 426.32 347.79 425.31C350.95 421.53 353.93 417.96 358.43 415.34C360.53 414.12 362.46 412.22 364.5 410.21C367.51 407.24 370.63 404.17 374.57 403.17C378.5 402.17 382.96 402.66 387.28 403.14C389.71 403.41 392.22 403.68 394.58 403.68C397.23 403.68 400.14 403.03 402.96 402.4C406.95 401.51 411.08 400.59 414.56 401.5C419.21 402.71 427.88 405.28 433.7 408.9C440.48 413.11 446.94 420.89 448.76 423.17C451.06 426.06 450.37 430.62 449.69 435.02C449.18 438.37 448.65 441.84 449.48 444.37L449.83 445.42C451.61 450.77 453.14 455.38 453.14 461.6C453.14 464.2 453.8 466.98 454.45 469.66C455.43 473.73 456.43 477.94 455.24 481.83C454.07 485.62 450.55 488.12 447.14 490.53C444.65 492.29 442.08 494.11 440.57 496.37C439.68 497.71 438.87 499.02 438.07 500.31C435.6 504.31 433.27 508.1 429.33 511.29C424.8 514.96 420.21 516.58 414.91 518.46C414.15 518.73 413.37 519.01 412.57 519.29C406.44 521.51 401.4 522.37 394.59 522.37C391.8 522.37 388.85 523.32 385.99 524.25C383.12 525.18 380.19 526.13 377.36 526.13H377.32ZM379.83 403.91C378.1 403.91 376.43 404.05 374.88 404.45C371.29 405.36 368.3 408.3 365.41 411.15C363.41 413.13 361.33 415.17 359.08 416.48C354.78 418.98 351.87 422.47 348.79 426.15C347.94 427.17 347.08 428.2 346.18 429.22C342.03 433.93 339.81 438.55 337.57 444.47C337.22 445.4 336.86 446.32 336.5 447.22C334.69 451.81 332.98 456.15 332.98 461.61C332.98 467.99 334.83 473.28 336.97 479.4L337.22 480.12C337.76 481.68 338.25 483.24 338.73 484.78C340.2 489.51 341.58 493.99 344.54 498L345.17 498.86C348.99 504.07 352.6 508.98 357.61 512.77C359.04 513.85 360.47 515.04 361.86 516.19C365.73 519.4 369.73 522.72 374.31 524.32C377.73 525.53 381.53 524.29 385.55 522.99C388.5 522.04 391.56 521.05 394.56 521.05C401.21 521.05 406.12 520.21 412.09 518.05C412.89 517.76 413.67 517.49 414.44 517.21C419.64 515.37 424.12 513.78 428.48 510.26C432.25 507.21 434.52 503.52 436.93 499.62C437.73 498.32 438.55 497 439.45 495.64C441.09 493.18 443.77 491.28 446.35 489.45C449.73 487.06 452.92 484.8 453.95 481.44C455.04 477.89 454.12 474.04 453.14 469.96C452.48 467.2 451.8 464.35 451.8 461.59C451.8 455.58 450.3 451.06 448.55 445.83L448.2 444.77C447.27 441.95 447.82 438.32 448.36 434.81C448.99 430.68 449.64 426.41 447.7 423.98C445.91 421.74 439.58 414.11 432.98 410C427.31 406.47 418.78 403.95 414.21 402.76C411.02 401.92 407.23 402.78 403.23 403.67C400.34 404.32 397.36 404.98 394.57 404.98C392.14 404.98 389.6 404.7 387.13 404.43C384.7 404.16 382.22 403.89 379.84 403.89L379.83 403.91Z" fill="#AEBA75"/>
<path d="M373.55 532.19C372.2 532.19 370.9 531.97 369.67 531.42C365.54 529.55 362.16 526.21 358.88 522.98C357.36 521.48 355.78 519.92 354.18 518.58C350.03 515.1 346.91 510.65 343.89 506.35C343.22 505.39 342.55 504.44 341.86 503.49C339.26 499.88 337.93 495.75 336.64 491.76C336 489.79 335.35 487.74 334.54 485.76C334.08 484.63 333.61 483.52 333.14 482.43C331.11 477.66 329.2 473.15 328.45 467.83C327.76 462.95 328.48 458.57 329.26 453.94C329.52 452.35 329.79 450.74 330.01 449.07C331.01 441.36 332.28 435.29 335.54 428.89C336.18 427.63 336.79 426.39 337.38 425.16C339.96 419.85 342.41 414.83 346.87 410.7C348.92 408.81 350.65 406.3 352.48 403.64C355.32 399.51 358.27 395.24 362.59 393.3C367.07 391.29 372.54 391.07 377.83 390.85C380.46 390.74 383.18 390.63 385.68 390.29C388.43 389.92 391.36 388.89 394.46 387.8C399.24 386.12 404.18 384.37 408.88 384.98C418.8 386.26 426.51 388.03 431.82 390.25C439.61 393.51 447.62 399.86 451.71 403.36C455.03 406.2 455.29 411.56 455.55 416.75C455.74 420.6 455.94 424.58 457.42 427.19C459.99 431.69 460.49 436.05 461.02 440.67C461.24 442.55 461.46 444.49 461.83 446.56C462.25 448.9 462.97 451.14 463.68 453.3C465 457.37 466.37 461.57 465.72 466.59C465.33 469.63 465.68 472.96 466.03 476.19C466.54 480.98 467.08 485.93 465.2 490.21C463.36 494.41 459.01 496.87 454.81 499.24C451.72 500.98 448.53 502.78 446.51 505.22C445.32 506.65 444.22 508.07 443.14 509.46C439.77 513.8 436.59 517.9 431.68 521.1C425.87 524.88 420.26 526.2 413.77 527.72L411.36 528.29C403.88 530.08 398.16 530.37 390.26 529.35C387.49 528.99 384.34 529.88 381.3 530.73C378.71 531.46 376.07 532.2 373.58 532.2L373.55 532.19ZM406.91 386.16C403.02 386.16 398.9 387.61 394.9 389.03C391.73 390.15 388.74 391.2 385.86 391.59C383.3 391.93 380.55 392.05 377.89 392.16C372.72 392.37 367.38 392.59 363.14 394.5C359.15 396.29 356.31 400.4 353.57 404.38C351.78 406.98 349.93 409.67 347.77 411.66C343.49 415.62 341.1 420.53 338.57 425.73C337.97 426.96 337.36 428.21 336.72 429.48C333.54 435.71 332.3 441.66 331.32 449.24C331.1 450.93 330.83 452.56 330.57 454.16C329.82 458.69 329.11 462.98 329.77 467.65C330.5 472.8 332.38 477.23 334.37 481.92C334.84 483.02 335.31 484.13 335.77 485.27C336.6 487.3 337.26 489.36 337.91 491.36C339.22 495.43 340.46 499.28 342.94 502.72C343.63 503.68 344.3 504.64 344.98 505.6C348.09 510.03 351.03 514.21 355.04 517.58C356.68 518.95 358.27 520.53 359.81 522.05C363 525.2 366.31 528.45 370.22 530.23C373.27 531.62 376.99 530.57 380.92 529.47C384.09 528.58 387.35 527.65 390.41 528.05C398.14 529.05 403.73 528.77 411.03 527.02L413.45 526.45C419.82 524.96 425.32 523.66 430.94 520C435.67 516.92 438.78 512.91 442.08 508.65C443.16 507.26 444.27 505.82 445.47 504.38C447.65 501.76 450.95 499.89 454.14 498.09C458.34 495.72 462.31 493.48 463.97 489.68C465.7 485.72 465.21 481.16 464.7 476.33C464.35 473.03 463.98 469.62 464.39 466.42C465 461.69 463.74 457.81 462.41 453.71C461.69 451.5 460.95 449.22 460.52 446.79C460.15 444.68 459.92 442.72 459.7 440.82C459.16 436.15 458.7 432.11 456.26 427.84C454.62 424.96 454.41 420.82 454.21 416.82C453.97 411.91 453.72 406.84 450.83 404.37C446.81 400.92 438.92 394.66 431.29 391.47C426.1 389.3 418.5 387.56 408.69 386.29C408.1 386.21 407.49 386.18 406.89 386.18L406.91 386.16Z" fill="#AEBA75"/>
<path d="M368.38 536.39C365.91 536.39 363.53 536 361.37 534.86C355.58 531.82 350.99 526.69 346.55 521.73C345.07 520.08 343.53 518.36 342 516.79C336.24 510.86 332.37 503.46 328.63 496.3L328.04 495.17C324.98 489.33 324.03 483.29 323.02 476.9C322.7 474.86 322.37 472.75 321.96 470.66L321.74 469.52C320.2 461.61 318.74 454.14 319.81 445.84C320.73 438.68 323.58 433.31 326.6 427.62C327.2 426.49 327.81 425.34 328.41 424.16C332.2 416.73 335.76 411.01 341.79 405.44C343.04 404.29 344.24 403.12 345.43 401.97C349.98 397.56 354.27 393.4 360.32 390.68C363.17 389.4 365.88 387.29 368.74 385.06C373.01 381.73 377.43 378.28 382.55 377.6C387.74 376.91 393.42 378.24 398.91 379.52C401.88 380.21 404.95 380.93 407.86 381.31C411.19 381.74 414.95 381.44 418.58 381.14C423.84 380.71 429.28 380.28 433.56 382.07C438.07 383.96 449.34 389 456.39 395.04C464.1 401.64 470.74 412.74 472.59 415.99C474.87 419.99 473.19 425.54 471.56 430.91C470.29 435.09 468.98 439.42 469.59 442.86L469.87 444.43C471.08 451.2 472.23 457.6 471.23 465.41C470.8 468.78 471.19 472.45 471.57 476.01C472.14 481.29 472.72 486.74 470.66 491.44C468.64 496.05 463.86 498.75 459.23 501.37C455.82 503.29 452.3 505.28 450.06 507.98C448.74 509.56 447.53 511.13 446.34 512.66C442.63 517.44 439.12 521.96 433.72 525.48C427.31 529.65 421.13 531.1 413.97 532.78L411.32 533.41C403.09 535.39 396.79 535.71 388.07 534.58C384.55 534.12 380.68 534.79 376.94 535.43C374.08 535.92 371.17 536.42 368.38 536.42V536.39ZM385.55 378.71C384.59 378.71 383.64 378.76 382.72 378.89C377.95 379.53 373.68 382.86 369.55 386.08C366.75 388.27 363.85 390.53 360.86 391.87C355.02 394.49 350.81 398.57 346.35 402.9C345.15 404.06 343.94 405.24 342.69 406.4C336.8 411.84 333.31 417.45 329.59 424.75C328.99 425.93 328.38 427.09 327.77 428.23C324.81 433.81 322.02 439.08 321.13 446.01C320.08 454.11 321.46 461.13 323.04 469.27L323.26 470.41C323.67 472.53 324.01 474.65 324.33 476.7C325.32 482.98 326.26 488.92 329.22 494.57L329.81 495.7C333.68 503.1 337.33 510.09 342.96 515.88C344.51 517.47 346.05 519.19 347.54 520.86C351.9 525.74 356.41 530.78 362 533.7C366.22 535.92 371.33 535.03 376.74 534.1C380.57 533.44 384.52 532.75 388.26 533.24C396.79 534.34 402.97 534.04 411.03 532.1L413.69 531.47C420.73 529.82 426.8 528.39 433.02 524.35C438.24 520.95 441.68 516.52 445.32 511.82C446.51 510.28 447.74 508.7 449.06 507.11C451.46 504.22 455.09 502.17 458.6 500.19C463.04 497.68 467.63 495.09 469.47 490.88C471.39 486.5 470.85 481.46 470.28 476.12C469.89 472.49 469.49 468.73 469.94 465.21C470.92 457.6 469.84 451.59 468.59 444.64L468.31 443.07C467.65 439.33 469 434.84 470.32 430.51C471.94 425.18 473.47 420.14 471.47 416.63C466.6 408.09 460.65 400.39 455.55 396.03C448.64 390.11 437.53 385.14 433.07 383.27C429.09 381.61 424.05 382.01 418.7 382.44C415 382.74 411.18 383.05 407.71 382.6C404.73 382.21 401.63 381.49 398.63 380.79C394.26 379.77 389.76 378.71 385.57 378.71H385.55Z" fill="#AEBA75"/>
<path d="M366 542.97C363.32 542.97 360.74 542.55 358.4 541.32C352.11 538.02 347.12 532.44 342.29 527.05C340.67 525.25 339 523.38 337.34 521.66C331.07 515.21 326.86 507.15 322.79 499.36L322.16 498.16C318.84 491.82 317.8 485.25 316.7 478.3C316.35 476.08 315.98 473.78 315.54 471.5L315.3 470.25C313.62 461.65 312.04 453.53 313.21 444.5C314.22 436.72 317.31 430.87 320.6 424.68C321.25 423.45 321.92 422.2 322.57 420.93C326.69 412.85 330.56 406.63 337.12 400.58C338.48 399.33 339.78 398.06 341.07 396.81C346.01 392.01 350.68 387.48 357.26 384.53C360.37 383.14 363.32 380.84 366.44 378.4C371.08 374.78 375.88 371.04 381.44 370.29C387.07 369.54 393.25 370.98 399.22 372.38C402.45 373.14 405.79 373.92 408.97 374.33C412.59 374.8 416.69 374.46 420.65 374.15C426.36 373.69 432.27 373.21 436.92 375.15C441.83 377.2 454.09 382.69 461.76 389.26C470.14 396.44 477.36 408.51 479.38 412.04C481.85 416.37 480.02 422.4 478.26 428.23C476.88 432.79 475.45 437.51 476.11 441.26L476.42 442.98C477.74 450.34 478.99 457.29 477.89 465.77C477.42 469.44 477.85 473.44 478.26 477.32C478.88 483.05 479.51 488.98 477.27 494.08C475.08 499.08 469.88 502.02 464.86 504.85C461.14 506.95 457.3 509.12 454.86 512.06C453.43 513.78 452.11 515.48 450.82 517.15C446.78 522.35 442.97 527.26 437.09 531.09C430.13 535.62 423.41 537.2 415.62 539.02L412.73 539.7C403.78 541.85 396.93 542.19 387.46 540.97C383.62 540.48 379.4 541.2 375.34 541.9C372.23 542.44 369.07 542.98 366.03 542.98L366 542.97ZM384.68 371.38C383.63 371.38 382.6 371.44 381.6 371.58C376.4 372.28 371.74 375.91 367.24 379.42C364.19 381.8 361.04 384.26 357.79 385.71C351.42 388.56 346.83 393.02 341.98 397.73C340.68 398.99 339.37 400.27 338 401.53C331.58 407.45 327.78 413.56 323.73 421.51C323.08 422.79 322.41 424.04 321.76 425.29C318.54 431.37 315.49 437.12 314.52 444.67C313.38 453.49 314.87 461.14 316.6 470L316.84 471.25C317.29 473.55 317.65 475.86 318.01 478.1C319.09 484.94 320.11 491.4 323.33 497.55L323.96 498.76C328.17 506.83 332.15 514.44 338.29 520.76C339.97 522.49 341.65 524.37 343.28 526.18C348.03 531.49 352.94 536.98 359.02 540.16C363.63 542.58 369.2 541.62 375.1 540.61C379.27 539.89 383.58 539.15 387.62 539.67C396.92 540.87 403.64 540.53 412.42 538.43L415.32 537.75C422.98 535.95 429.6 534.4 436.37 529.99C442.06 526.28 445.81 521.46 449.78 516.35C451.08 514.68 452.41 512.96 453.85 511.23C456.45 508.1 460.4 505.87 464.22 503.72C469.06 500.99 474.06 498.16 476.08 493.56C478.17 488.78 477.59 483.28 476.96 477.47C476.54 473.52 476.1 469.44 476.59 465.61C477.66 457.33 476.49 450.79 475.13 443.22L474.82 441.5C474.1 437.44 475.58 432.56 477 427.86C478.77 422.04 480.43 416.54 478.24 412.71C476.25 409.23 469.13 397.32 460.91 390.27C453.38 383.82 441.28 378.41 436.42 376.38C432.07 374.56 426.58 375.01 420.77 375.47C416.74 375.8 412.59 376.13 408.82 375.64C405.58 375.22 402.2 374.43 398.94 373.67C394.18 372.55 389.28 371.41 384.72 371.41L384.68 371.38Z" fill="#AEBA75"/>
<path d="M363.95 548.65C361.09 548.65 358.34 548.2 355.83 546.88C349.1 543.35 343.76 537.38 338.6 531.61C336.88 529.68 335.09 527.69 333.31 525.86C326.61 518.97 322.12 510.36 317.76 502.04L317.07 500.72C313.52 493.94 312.41 486.92 311.24 479.48C310.86 477.1 310.48 474.64 310 472.2L309.74 470.87C307.95 461.67 306.25 452.98 307.5 443.32C308.58 435.01 311.89 428.76 315.39 422.14C316.09 420.82 316.8 419.48 317.5 418.11C321.9 409.48 326.04 402.83 333.06 396.35C334.51 395.01 335.9 393.66 337.28 392.32C342.57 387.19 347.56 382.34 354.6 379.18C357.93 377.69 361.09 375.23 364.43 372.62C369.39 368.75 374.52 364.75 380.46 363.96C386.5 363.16 393.09 364.7 399.47 366.19C402.93 367 406.5 367.84 409.9 368.27C413.79 368.78 418.17 368.42 422.41 368.08C428.52 367.58 434.83 367.07 439.8 369.15C446.33 371.88 458.46 377.47 466.36 384.24C475.32 391.92 483.05 404.83 485.2 408.6C487.83 413.21 485.88 419.65 483.99 425.88C482.51 430.77 480.98 435.82 481.69 439.84L482.02 441.69C483.43 449.55 484.76 456.98 483.59 466.05C483.08 469.98 483.54 474.27 483.99 478.42C484.65 484.54 485.33 490.88 482.94 496.33C480.6 501.67 475.05 504.8 469.68 507.84C465.7 510.08 461.59 512.41 458.97 515.57C457.44 517.41 456.02 519.24 454.64 521.02C450.32 526.58 446.25 531.84 439.97 535.93C432.53 540.77 425.35 542.46 417.04 544.41L413.93 545.14C404.36 547.44 397.04 547.81 386.9 546.5C382.78 545.96 378.28 546.74 373.91 547.5C370.59 548.07 367.2 548.66 363.96 548.66L363.95 548.65ZM383.94 365.06C382.82 365.06 381.71 365.12 380.63 365.27C375.05 366.02 370.06 369.91 365.24 373.67C361.98 376.21 358.61 378.84 355.14 380.4C348.32 383.46 343.4 388.23 338.2 393.28C336.81 394.63 335.41 395.99 333.95 397.33C327.08 403.67 323.01 410.22 318.67 418.72C317.97 420.1 317.26 421.44 316.55 422.77C313.1 429.28 309.84 435.42 308.8 443.5C307.58 452.95 309.18 461.14 311.03 470.62L311.29 471.95C311.77 474.41 312.16 476.88 312.54 479.27C313.7 486.59 314.79 493.51 318.24 500.1L318.93 501.42C323.44 510.04 327.69 518.18 334.26 524.94C336.06 526.79 337.85 528.79 339.58 530.73C344.67 536.42 349.93 542.3 356.45 545.71C361.4 548.31 367.37 547.28 373.68 546.19C378.14 545.43 382.75 544.63 387.06 545.19C397.01 546.48 404.21 546.12 413.61 543.86C414.67 543.61 415.7 543.36 416.72 543.12C424.91 541.2 431.99 539.54 439.24 534.82C445.34 530.85 449.35 525.68 453.59 520.21C454.97 518.43 456.4 516.59 457.94 514.73C460.72 511.39 464.94 509 469.02 506.7C474.2 503.77 479.56 500.75 481.73 495.81C483.98 490.68 483.35 484.8 482.68 478.57C482.22 474.35 481.76 469.98 482.28 465.89C483.43 457.03 482.17 450.03 480.72 441.94L480.39 440.09C479.62 435.75 481.2 430.55 482.72 425.51C484.61 419.28 486.39 413.39 484.05 409.27C481.92 405.54 474.3 392.79 465.5 385.25C457.45 378.35 444.49 372.55 439.29 370.38C434.63 368.43 428.75 368.9 422.52 369.41C418.22 369.76 413.77 370.12 409.74 369.6C406.27 369.15 402.67 368.31 399.18 367.49C394.08 366.3 388.84 365.07 383.96 365.07L383.94 365.06Z" fill="#AEBA75"/>
<path d="M361.06 556.63C357.94 556.63 354.95 556.14 352.22 554.71C344.89 550.87 339.06 544.36 333.43 538.06C331.54 535.95 329.59 533.77 327.64 531.77C320.34 524.25 315.43 514.86 310.68 505.78L309.92 504.34C306.05 496.94 304.83 489.28 303.55 481.16C303.14 478.57 302.72 475.88 302.2 473.22L301.92 471.76C299.96 461.72 298.11 452.24 299.47 441.71C300.64 432.63 304.26 425.81 308.09 418.59C308.85 417.15 309.62 415.69 310.39 414.2C315.2 404.78 319.72 397.52 327.36 390.45C328.95 388.99 330.47 387.51 331.98 386.04C337.75 380.44 343.2 375.16 350.86 371.72C354.5 370.09 357.96 367.4 361.61 364.55C367.02 360.33 372.61 355.97 379.08 355.1C385.64 354.22 392.85 355.91 399.81 357.54C403.59 358.43 407.49 359.34 411.21 359.82C415.46 360.36 420.24 359.98 424.87 359.61C431.54 359.07 438.43 358.51 443.83 360.77C450.96 363.75 464.2 369.85 472.82 377.24C482.6 385.62 491.03 399.71 493.38 403.83C496.24 408.85 494.12 415.87 492.06 422.66C490.44 428 488.77 433.52 489.55 437.93L489.91 439.92C491.45 448.51 492.91 456.63 491.63 466.53C491.07 470.83 491.58 475.51 492.07 480.05C492.79 486.73 493.53 493.64 490.92 499.58C488.37 505.39 482.32 508.81 476.46 512.12C472.11 514.57 467.62 517.11 464.75 520.57C463.08 522.58 461.53 524.58 460.03 526.52C455.32 532.59 450.87 538.32 444.02 542.79C435.9 548.07 428.06 549.91 418.97 552.04C417.86 552.3 416.74 552.56 415.6 552.84C405.16 555.34 397.17 555.75 386.11 554.32C381.61 553.74 376.68 554.59 371.91 555.41C368.28 556.04 364.59 556.67 361.06 556.67V556.63ZM382.88 356.16C381.65 356.16 380.45 356.23 379.26 356.39C373.15 357.21 367.7 361.46 362.43 365.57C358.87 368.34 355.2 371.21 351.41 372.91C343.95 376.25 338.59 381.46 332.91 386.98C331.39 388.45 329.86 389.94 328.26 391.41C320.75 398.34 316.31 405.49 311.56 414.79C310.8 416.29 310.02 417.75 309.25 419.2C305.48 426.32 301.92 433.04 300.78 441.88C299.45 452.2 301.19 461.15 303.21 471.51L303.49 472.97C304.01 475.66 304.44 478.35 304.85 480.96C306.11 488.97 307.31 496.53 311.08 503.73L311.84 505.18C316.76 514.6 321.41 523.49 328.58 530.87C330.55 532.89 332.5 535.08 334.4 537.2C339.96 543.41 345.7 549.83 352.82 553.56C358.24 556.4 364.77 555.28 371.68 554.09C376.54 553.26 381.57 552.4 386.27 552.99C397.15 554.39 405.02 554 415.28 551.54C416.43 551.26 417.55 551 418.66 550.74C427.62 548.64 435.37 546.82 443.29 541.66C449.96 537.32 454.34 531.67 458.98 525.69C460.49 523.74 462.05 521.73 463.73 519.71C466.75 516.07 471.36 513.47 475.8 510.96C481.47 507.76 487.33 504.45 489.7 499.04C492.16 493.42 491.47 486.99 490.74 480.18C490.24 475.57 489.73 470.81 490.31 466.35C491.56 456.65 490.19 449 488.6 440.14L488.25 438.15C487.41 433.43 489.13 427.75 490.8 422.26C492.87 415.44 494.82 409 492.24 404.47C489.92 400.4 481.59 386.47 471.97 378.23C463.17 370.69 449.01 364.36 443.33 361.98C438.22 359.84 431.79 360.36 424.99 360.91C420.29 361.29 415.44 361.68 411.05 361.12C407.27 360.63 403.33 359.71 399.52 358.82C393.95 357.52 388.22 356.17 382.88 356.17V356.16Z" fill="#AEBA75"/>
<path d="M358.73 563.08C355.41 563.08 352.22 562.56 349.31 561.03C341.48 556.93 335.26 549.97 329.24 543.25C327.23 541 325.15 538.67 323.07 536.53C315.26 528.5 310.01 518.45 304.94 508.74L304.15 507.23C300.02 499.34 298.73 491.15 297.36 482.49C296.92 479.72 296.47 476.85 295.92 474.01L295.62 472.47C293.53 461.75 291.55 451.62 293 440.38C294.25 430.7 298.11 423.42 302.2 415.71C303.02 414.17 303.84 412.61 304.66 411.02C309.79 400.96 314.62 393.21 322.78 385.67C324.47 384.11 326.1 382.53 327.71 380.97C333.87 374.99 339.69 369.34 347.87 365.67C351.76 363.93 355.45 361.05 359.36 358C365.13 353.5 371.11 348.84 377.99 347.92C384.98 346.99 392.68 348.78 400.12 350.52C404.16 351.46 408.33 352.44 412.3 352.95C416.84 353.53 421.96 353.12 426.91 352.73C434.02 352.16 441.38 351.56 447.13 353.97C453.25 356.53 468.52 363.36 478.08 371.55C488.52 380.5 497.52 395.53 500.02 399.93C503.07 405.27 500.8 412.76 498.6 420C496.87 425.71 495.08 431.62 495.92 436.34L496.31 438.49C497.95 447.65 499.51 456.31 498.15 466.87C497.56 471.47 498.09 476.47 498.61 481.32C499.38 488.45 500.17 495.82 497.39 502.15C494.68 508.34 488.22 511.99 481.97 515.52C477.32 518.14 472.52 520.85 469.45 524.55C467.66 526.7 466.01 528.84 464.4 530.91C459.37 537.39 454.63 543.51 447.31 548.27C438.65 553.9 430.28 555.87 420.59 558.14C419.4 558.42 418.2 558.7 416.97 559C405.83 561.67 397.3 562.11 385.49 560.58C380.67 559.95 375.41 560.87 370.31 561.74C366.44 562.41 362.5 563.09 358.72 563.09L358.73 563.08ZM382.03 348.98C380.72 348.98 379.43 349.05 378.16 349.22C371.63 350.09 365.8 354.64 360.16 359.03C356.36 361.99 352.44 365.05 348.4 366.86C340.43 370.43 334.69 376 328.62 381.9C327 383.47 325.36 385.06 323.67 386.63C315.65 394.03 310.9 401.67 305.83 411.61C305.01 413.21 304.19 414.78 303.36 416.32C299.33 423.92 295.53 431.1 294.31 440.55C292.88 451.58 294.84 461.61 296.91 472.22L297.21 473.76C297.77 476.63 298.22 479.5 298.66 482.29C300.01 490.84 301.29 498.93 305.32 506.63L306.11 508.14C311.37 518.21 316.34 527.73 324.02 535.63C326.11 537.79 328.2 540.12 330.23 542.38C336.17 549.02 342.31 555.88 349.92 559.87C355.72 562.91 362.7 561.71 370.09 560.44C375.28 559.55 380.64 558.63 385.66 559.27C397.29 560.76 405.69 560.35 416.66 557.72C417.89 557.42 419.1 557.14 420.29 556.86C429.86 554.62 438.13 552.68 446.59 547.17C453.72 542.53 458.4 536.5 463.35 530.11C464.96 528.03 466.63 525.88 468.43 523.72C471.65 519.84 476.56 517.07 481.32 514.38C487.38 510.96 493.64 507.42 496.18 501.63C498.81 495.62 498.07 488.75 497.29 481.47C496.76 476.55 496.21 471.47 496.83 466.71C498.17 456.36 496.7 448.19 495.01 438.73L494.62 436.58C493.73 431.55 495.56 425.49 497.34 419.63C499.55 412.33 501.64 405.44 498.88 400.6C496.4 396.25 487.5 381.38 477.22 372.56C467.81 364.5 452.69 357.73 446.62 355.2C441.16 352.92 434.29 353.47 427.01 354.06C422 354.47 416.82 354.89 412.12 354.28C408.08 353.76 403.88 352.77 399.81 351.82C393.86 350.42 387.74 348.99 382.02 348.99L382.03 348.98Z" fill="#AEBA75"/>
<path d="M355.28 572.6C351.65 572.6 348.17 572.03 345.01 570.37C336.46 565.89 329.66 558.29 323.08 550.94C320.87 548.47 318.59 545.92 316.31 543.58C307.78 534.8 302.04 523.82 296.5 513.21L295.63 511.55C291.11 502.92 289.7 493.98 288.21 484.51C287.73 481.47 287.23 478.34 286.63 475.22L286.3 473.52C284.01 461.8 281.86 450.73 283.44 438.44C284.81 427.86 289.03 419.9 293.5 411.46C294.39 409.77 295.29 408.07 296.18 406.33C301.78 395.33 307.06 386.86 315.99 378.62C317.84 376.91 319.62 375.18 321.39 373.47C328.12 366.93 334.48 360.76 343.42 356.75C347.69 354.84 351.73 351.69 356.01 348.35C362.32 343.43 368.84 338.34 376.36 337.33C384 336.32 392.42 338.27 400.55 340.18C404.97 341.21 409.53 342.28 413.88 342.84C418.86 343.49 424.46 343.03 429.87 342.59C437.64 341.96 445.68 341.31 451.97 343.94C458.67 346.74 475.37 354.22 485.81 363.16C497.23 372.94 507.06 389.39 509.8 394.2C513.12 400.02 510.64 408.2 508.25 416.11C506.35 422.36 504.39 428.83 505.31 434.01L505.73 436.36C507.53 446.39 509.23 455.85 507.74 467.4C507.09 472.44 507.68 477.92 508.25 483.22C509.09 491.01 509.95 499.07 506.92 505.98C503.96 512.74 496.9 516.72 490.07 520.58C484.98 523.45 479.72 526.42 476.36 530.48C474.4 532.83 472.59 535.18 470.83 537.44C465.34 544.52 460.15 551.21 452.16 556.41C442.69 562.57 433.54 564.72 422.94 567.2C421.65 567.5 420.33 567.81 418.99 568.13C406.81 571.05 397.49 571.53 384.57 569.86C379.29 569.18 373.52 570.17 367.95 571.13C363.72 571.86 359.41 572.6 355.28 572.6ZM380.77 338.37C379.33 338.37 377.91 338.45 376.53 338.64C369.37 339.6 362.98 344.58 356.81 349.39C352.66 352.62 348.37 355.97 343.96 357.95C335.23 361.86 328.95 367.96 322.31 374.41C320.54 376.13 318.75 377.87 316.89 379.59C308.1 387.7 302.9 396.07 297.36 406.93C296.47 408.68 295.56 410.39 294.67 412.08C290.26 420.4 286.09 428.26 284.76 438.61C283.2 450.69 285.34 461.66 287.61 473.27L287.94 474.97C288.55 478.11 289.05 481.26 289.53 484.3C291.01 493.66 292.41 502.5 296.82 510.94L297.69 512.6C303.45 523.62 308.89 534.02 317.28 542.67C319.58 545.03 321.87 547.59 324.08 550.07C330.58 557.33 337.29 564.84 345.64 569.21C352.01 572.55 359.66 571.24 367.74 569.84C373.41 568.86 379.28 567.85 384.75 568.56C397.48 570.21 406.68 569.74 418.69 566.86C420.03 566.54 421.35 566.23 422.65 565.92C433.13 563.46 442.18 561.34 451.45 555.3C459.25 550.22 464.37 543.62 469.8 536.63C471.57 534.36 473.39 532 475.36 529.63C478.88 525.39 484.25 522.36 489.44 519.43C496.08 515.68 502.94 511.81 505.73 505.45C508.62 498.86 507.77 490.98 506.95 483.36C506.37 477.98 505.77 472.42 506.45 467.23C507.91 455.89 506.31 446.95 504.45 436.6L504.03 434.25C503.06 428.76 505.06 422.14 507.01 415.74C509.43 407.75 511.72 400.2 508.68 394.87C505.96 390.11 496.23 373.83 484.97 364.18C474.67 355.36 458.12 347.95 451.48 345.17C445.49 342.67 437.97 343.27 430 343.92C424.52 344.36 418.85 344.83 413.73 344.16C409.32 343.59 404.72 342.51 400.27 341.47C393.75 339.95 387.06 338.38 380.8 338.38L380.77 338.37Z" fill="#AEBA75"/>
<path d="M348.22 581.25C345.56 581.25 343.03 580.76 340.69 579.54C332.34 575.17 325.96 567.29 319.79 559.67C316.91 556.12 313.94 552.45 310.86 549.28C302.97 541.16 297.83 530.99 292.85 521.16C291.75 518.98 290.64 516.8 289.5 514.62C285.14 506.29 284.22 497.71 283.25 488.63C282.8 484.41 282.33 480.05 281.48 475.71C281.02 473.36 280.55 471.08 280.08 468.84C277.88 458.35 275.8 448.44 277.27 437.05C278.57 426.99 282.75 419.78 287.18 412.14C288.73 409.47 290.33 406.71 291.82 403.8C297.9 391.89 302.59 383.42 312.1 374.64C314.89 372.06 317.46 369.34 319.94 366.7C325.97 360.28 331.67 354.22 340.21 350.39C345.05 348.22 349.47 343.82 354.16 339.16C360.4 332.96 366.85 326.54 374.6 325.51C382.27 324.49 390.85 327.14 399.15 329.72C404.52 331.39 410.08 333.12 415.27 333.79C420.92 334.51 427.64 333.26 434.14 332.05C442.54 330.48 451.22 328.86 457.68 331.56C467.44 335.64 485.32 343.78 495.45 352.45C507.09 362.42 518.51 381.63 521.73 387.28C525.21 393.37 520.9 402.21 516.33 411.57C512.64 419.13 508.83 426.95 509.85 432.66C510.26 434.97 510.7 437.19 511.13 439.36C512.91 448.31 514.58 456.77 513.2 467.51C512.46 473.24 513.99 479.7 515.46 485.94C517.41 494.18 519.42 502.7 516.31 509.8C513.22 516.84 504.62 520.06 496.3 523.18C489.61 525.68 482.7 528.27 478.96 532.78C476.19 536.11 473.86 539.45 471.62 542.67C466.87 549.47 462.38 555.89 454.71 560.9C445.97 566.59 437.9 568.24 428.55 570.15C425.74 570.72 422.84 571.32 419.78 572.05C406.83 575.16 398.2 575.57 384.29 573.78C378.3 573.01 371.48 575.27 364.88 577.47C359.25 579.34 353.49 581.25 348.22 581.25ZM378.14 326.61C377 326.61 375.88 326.68 374.78 326.83C367.47 327.81 361.18 334.06 355.09 340.11C350.31 344.86 345.8 349.34 340.75 351.61C332.45 355.33 326.84 361.3 320.9 367.62C318.4 370.27 315.82 373.02 313 375.63C303.65 384.26 299.01 392.63 293 404.41C291.5 407.36 289.89 410.13 288.33 412.81C283.97 420.33 279.85 427.43 278.59 437.22C277.15 448.39 279.2 458.19 281.38 468.57C281.85 470.82 282.33 473.1 282.79 475.45C283.64 479.85 284.12 484.24 284.57 488.48C285.53 497.44 286.44 505.9 290.68 514C291.82 516.18 292.93 518.37 294.04 520.56C299.2 530.75 304.07 540.37 311.82 548.36C314.94 551.57 317.93 555.26 320.82 558.83C326.91 566.34 333.21 574.11 341.31 578.36C347.78 581.74 355.88 579.05 364.47 576.21C371.22 573.97 378.19 571.68 384.47 572.47C398.21 574.25 406.71 573.83 419.48 570.76C422.56 570.02 425.47 569.42 428.29 568.85C437.51 566.97 445.47 565.34 453.99 559.78C461.45 554.92 465.87 548.6 470.54 541.91C472.8 538.67 475.15 535.31 477.95 531.93C481.91 527.16 488.99 524.51 495.84 521.94C503.91 518.92 512.25 515.79 515.11 509.26C518.04 502.57 516.17 494.63 514.18 486.24C512.68 479.88 511.12 473.3 511.89 467.34C513.25 456.82 511.59 448.46 509.84 439.62C509.41 437.44 508.97 435.21 508.56 432.9C507.47 426.76 511.38 418.75 515.16 411C519.38 402.36 523.73 393.42 520.6 387.94C517.4 382.34 506.08 363.29 494.6 353.46C484.62 344.91 466.87 336.84 457.18 332.79C451.08 330.24 442.6 331.83 434.39 333.36C427.79 334.59 420.98 335.87 415.1 335.11C409.8 334.43 404.19 332.68 398.76 330.99C391.82 328.83 384.67 326.61 378.14 326.61Z" fill="#AEBA75"/>
<path d="M345.19 588.9C342.37 588.9 339.68 588.38 337.2 587.09C328.33 582.44 321.54 574.06 314.97 565.96C311.91 562.18 308.74 558.28 305.47 554.9C297.07 546.26 291.6 535.44 286.31 524.98C285.14 522.66 283.96 520.34 282.75 518.03C278.11 509.18 277.13 500.05 276.1 490.39C275.62 485.9 275.12 481.26 274.22 476.64C273.74 474.15 273.23 471.72 272.73 469.34C270.39 458.18 268.18 447.64 269.75 435.52C271.13 424.83 275.58 417.16 280.29 409.03C281.94 406.19 283.64 403.26 285.22 400.15C291.68 387.48 296.67 378.48 306.79 369.14C309.76 366.4 312.49 363.5 315.12 360.69C321.54 353.86 327.6 347.41 336.68 343.34C341.83 341.03 346.55 336.35 351.54 331.38C358.18 324.78 365.04 317.97 373.27 316.86C381.42 315.76 390.55 318.6 399.38 321.34C405.1 323.12 411.01 324.95 416.54 325.67C422.56 326.44 429.72 325.11 436.64 323.82C445.57 322.15 454.8 320.43 461.66 323.3C472.05 327.64 491.08 336.31 501.83 345.52C514.2 356.12 526.36 376.56 529.79 382.57C533.48 389.03 528.9 398.43 524.04 408.39C520.12 416.44 516.06 424.76 517.14 430.85C517.57 433.3 518.04 435.66 518.5 437.97C520.39 447.5 522.18 456.5 520.7 467.92C519.91 474.02 521.54 480.9 523.11 487.54C525.18 496.3 527.32 505.36 524.02 512.9C520.75 520.37 511.6 523.8 502.75 527.12C495.63 529.79 488.27 532.54 484.29 537.34C481.34 540.89 478.87 544.43 476.47 547.86C471.42 555.09 466.65 561.92 458.49 567.24C449.19 573.29 440.61 575.05 430.66 577.08C427.67 577.69 424.59 578.32 421.34 579.1C407.57 582.4 398.4 582.86 383.6 580.94C377.24 580.12 369.96 582.53 362.92 584.86C356.93 586.85 350.81 588.88 345.21 588.88L345.19 588.9ZM377.03 317.95C375.82 317.95 374.62 318.02 373.45 318.18C365.66 319.22 358.96 325.88 352.48 332.32C347.4 337.37 342.6 342.14 337.23 344.55C328.39 348.52 322.41 354.87 316.09 361.6C313.44 364.42 310.69 367.34 307.69 370.11C297.73 379.3 292.79 388.21 286.4 400.75C284.8 403.88 283.09 406.84 281.44 409.69C276.8 417.69 272.41 425.25 271.07 435.69C269.53 447.59 271.72 458.02 274.03 469.07C274.53 471.46 275.04 473.89 275.53 476.39C276.44 481.06 276.94 485.73 277.43 490.25C278.45 499.79 279.42 508.79 283.94 517.42C285.15 519.74 286.33 522.06 287.5 524.39C292.99 535.24 298.17 545.49 306.43 553.99C309.74 557.4 312.93 561.33 316.01 565.13C322.49 573.13 329.19 581.4 337.83 585.92C344.73 589.54 353.36 586.67 362.51 583.63C369.68 581.25 377.12 578.79 383.77 579.65C398.38 581.53 407.44 581.1 421.03 577.83C424.3 577.05 427.4 576.41 430.4 575.8C440.21 573.79 448.69 572.06 457.77 566.14C465.72 560.97 470.42 554.24 475.39 547.11C477.8 543.66 480.29 540.09 483.28 536.5C487.49 531.43 495.01 528.62 502.29 525.89C510.88 522.67 519.77 519.34 522.82 512.38C525.95 505.24 523.86 496.4 521.84 487.85C520.24 481.09 518.59 474.09 519.41 467.75C520.86 456.54 519.09 447.65 517.23 438.23C516.77 435.91 516.3 433.54 515.86 431.08C514.7 424.56 518.86 416.05 522.88 407.81C527.37 398.6 532.01 389.09 528.67 383.23C525.27 377.26 513.21 356.99 501 346.52C490.38 337.43 471.49 328.83 461.18 324.52C454.69 321.81 445.65 323.49 436.91 325.12C429.89 326.43 422.63 327.78 416.4 326.99C410.76 326.26 404.79 324.41 399.02 322.61C391.63 320.31 384.02 317.95 377.06 317.95H377.03Z" fill="#AEBA75"/>
<path d="M341.3 598.75C338.27 598.75 335.38 598.2 332.71 596.8C323.16 591.79 315.85 582.77 308.77 574.05C305.47 569.98 302.06 565.77 298.53 562.13C289.49 552.82 283.59 541.17 277.9 529.9C276.64 527.4 275.37 524.9 274.07 522.41C269.08 512.88 268.02 503.04 266.91 492.63C266.39 487.79 265.85 482.79 264.89 477.82C264.37 475.13 263.82 472.52 263.28 469.96C260.76 457.94 258.38 446.59 260.07 433.53C261.55 422.02 266.35 413.76 271.42 405.02C273.2 401.96 275.03 398.79 276.74 395.45C283.71 381.8 289.09 372.1 299.97 362.05C303.17 359.1 306.11 355.97 308.95 352.94C315.86 345.59 322.39 338.64 332.17 334.25C337.73 331.76 342.81 326.71 348.2 321.36C355.34 314.26 362.73 306.92 371.58 305.73C380.35 304.55 390.19 307.6 399.69 310.55C405.86 312.47 412.23 314.45 418.19 315.22C424.69 316.06 432.4 314.62 439.86 313.22C449.48 311.43 459.42 309.57 466.79 312.65C477.98 317.33 498.48 326.66 510.06 336.58C523.39 348 536.48 370.01 540.17 376.49C544.13 383.43 538.97 394.02 533.98 404.26C529.75 412.94 525.37 421.92 526.54 428.5C527.01 431.15 527.51 433.69 528.01 436.18C530.05 446.44 531.97 456.13 530.38 468.43C529.53 475.01 531.28 482.42 532.98 489.59C535.21 499.02 537.51 508.78 533.96 516.89C530.44 524.92 520.59 528.61 511.07 532.18C503.4 535.05 495.46 538.03 491.16 543.21C487.98 547.04 485.31 550.86 482.73 554.56C477.29 562.35 472.16 569.7 463.37 575.42C453.36 581.94 444.11 583.83 433.39 586.02C430.18 586.68 426.85 587.36 423.35 588.2C408.52 591.76 398.64 592.24 382.7 590.18C375.81 589.29 367.98 591.89 360.4 594.41C353.95 596.55 347.36 598.74 341.33 598.74L341.3 598.75ZM375.61 306.8C374.3 306.8 373.01 306.88 371.74 307.05C363.33 308.18 356.1 315.36 349.11 322.31C343.64 327.75 338.47 332.88 332.7 335.47C323.16 339.75 316.72 346.6 309.9 353.85C307.04 356.89 304.08 360.04 300.85 363.02C290.12 372.92 284.8 382.53 277.9 396.05C276.18 399.43 274.33 402.61 272.55 405.69C267.54 414.32 262.82 422.46 261.37 433.71C259.71 446.54 262.07 457.79 264.57 469.7C265.11 472.27 265.66 474.89 266.18 477.58C267.16 482.61 267.7 487.64 268.22 492.5C269.32 502.78 270.37 512.5 275.24 521.8C276.55 524.3 277.82 526.81 279.08 529.31C285 541 290.58 552.05 299.49 561.21C303.06 564.88 306.49 569.12 309.81 573.21C316.8 581.83 324.02 590.75 333.33 595.62C340.78 599.53 350.09 596.43 359.96 593.15C367.68 590.59 375.67 587.93 382.85 588.86C398.61 590.9 408.37 590.42 423.02 586.9C426.54 586.06 429.88 585.37 433.1 584.72C443.68 582.56 452.82 580.69 462.62 574.3C471.19 568.72 476.26 561.47 481.62 553.79C484.22 550.07 486.9 546.23 490.12 542.35C494.65 536.9 502.75 533.87 510.58 530.93C519.85 527.46 529.43 523.87 532.73 516.34C536.11 508.63 533.85 499.1 531.67 489.88C529.95 482.6 528.17 475.06 529.05 468.24C530.61 456.16 528.71 446.57 526.7 436.42C526.2 433.92 525.7 431.37 525.23 428.72C523.99 421.71 528.46 412.54 532.79 403.67C537.63 393.74 542.64 383.47 539.02 377.14C535.35 370.71 522.36 348.86 509.19 337.58C497.75 327.78 477.39 318.51 466.27 313.86C459.26 310.93 449.51 312.75 440.09 314.51C432.53 315.92 424.72 317.39 418.01 316.52C411.94 315.74 405.51 313.74 399.29 311.81C391.32 309.34 383.12 306.79 375.61 306.79V306.8Z" fill="#AEBA75"/>
<path d="M336.88 609.96C333.61 609.96 330.49 609.36 327.62 607.86C317.3 602.45 309.39 592.69 301.74 583.26C298.17 578.85 294.48 574.3 290.65 570.36C280.88 560.3 274.51 547.71 268.35 535.53C266.98 532.82 265.61 530.11 264.19 527.41C258.8 517.11 257.66 506.47 256.45 495.22C255.89 489.99 255.31 484.58 254.26 479.19C253.7 476.29 253.1 473.47 252.52 470.7C249.79 457.69 247.22 445.41 249.04 431.29C250.65 418.85 255.83 409.91 261.31 400.45C263.23 397.14 265.22 393.72 267.06 390.1C274.59 375.34 280.4 364.85 292.18 353.98C295.64 350.79 298.82 347.4 301.89 344.13C309.37 336.18 316.43 328.66 327 323.92C333.02 321.22 338.53 315.75 344.35 309.96C352.07 302.28 360.06 294.35 369.61 293.07C379.11 291.8 389.73 295.1 400 298.29C406.67 300.36 413.57 302.51 420.02 303.34C427.05 304.25 435.41 302.69 443.48 301.18C453.87 299.24 464.61 297.23 472.59 300.56C484.69 305.62 506.86 315.71 519.39 326.44C533.81 338.8 547.96 362.6 551.95 369.6C556.22 377.09 550.64 388.53 545.25 399.59C540.67 408.99 535.93 418.71 537.19 425.84C537.7 428.7 538.24 431.45 538.78 434.14C540.98 445.24 543.06 455.72 541.34 469.02C540.42 476.15 542.32 484.17 544.15 491.93C546.56 502.13 549.05 512.67 545.21 521.43C541.41 530.1 530.77 534.09 520.47 537.94C512.16 541.05 503.57 544.27 498.9 549.89C495.46 554.03 492.57 558.17 489.78 562.17C483.9 570.59 478.34 578.55 468.85 584.73C458.03 591.77 448.02 593.82 436.44 596.19C432.96 596.9 429.36 597.64 425.58 598.54C409.54 602.39 398.86 602.91 381.62 600.69C374.17 599.72 365.68 602.55 357.47 605.27C350.5 607.59 343.37 609.95 336.86 609.95L336.88 609.96ZM373.99 294.12C372.57 294.12 371.17 294.21 369.8 294.39C360.68 295.61 352.86 303.39 345.29 310.91C339.38 316.79 333.79 322.34 327.55 325.14C317.22 329.77 310.25 337.19 302.86 345.04C299.77 348.33 296.57 351.73 293.08 354.96C281.46 365.68 275.7 376.08 268.24 390.71C266.38 394.36 264.39 397.8 262.46 401.13C257.04 410.47 251.93 419.29 250.35 431.47C248.55 445.36 251.11 457.54 253.81 470.44C254.39 473.22 254.99 476.04 255.55 478.95C256.61 484.39 257.19 489.83 257.76 495.09C258.96 506.22 260.08 516.73 265.36 526.81C266.78 529.52 268.15 532.24 269.52 534.95C275.92 547.6 281.97 559.55 291.6 569.46C295.46 573.43 299.17 578.01 302.76 582.44C310.32 591.77 318.14 601.42 328.23 606.7C336.31 610.94 346.4 607.59 357.08 604.04C365.43 601.27 374.06 598.41 381.82 599.41C398.88 601.61 409.44 601.1 425.3 597.29C429.11 596.38 432.72 595.64 436.21 594.93C447.66 592.59 457.55 590.57 468.16 583.66C477.44 577.62 482.92 569.77 488.73 561.45C491.54 557.43 494.44 553.27 497.92 549.08C502.81 543.2 511.57 539.92 520.04 536.74C530.08 532.98 540.46 529.09 544.04 520.93C547.7 512.58 545.26 502.25 542.9 492.27C541.04 484.39 539.11 476.25 540.06 468.88C541.75 455.8 539.69 445.42 537.51 434.43C536.97 431.73 536.43 428.97 535.92 426.1C534.58 418.54 539.41 408.63 544.09 399.04C549.33 388.28 554.76 377.16 550.83 370.28C546.86 363.32 532.81 339.68 518.55 327.46C506.16 316.85 484.13 306.83 472.1 301.79C464.5 298.61 453.95 300.58 443.75 302.49C435.58 304.02 427.13 305.6 419.88 304.66C413.32 303.81 406.36 301.65 399.64 299.56C391.02 296.88 382.14 294.12 374.01 294.12H373.99Z" fill="#AEBA75"/>
<path d="M329.45 624.73C326.35 624.73 323.41 624.14 320.69 622.72C309.74 616.98 301.53 606.31 293.59 595.98C289.51 590.68 285.29 585.19 280.84 580.61C270.67 570.14 264.48 557.59 257.92 544.29C256.14 540.69 254.31 536.98 252.41 533.35C246.71 522.46 245.81 511.24 244.86 499.36C244.37 493.22 243.86 486.88 242.64 480.55C241.87 476.61 241.03 472.81 240.22 469.13C237.28 455.84 234.5 443.28 236.39 428.62C238.08 415.56 243.67 406.42 249.58 396.74C251.99 392.8 254.48 388.72 256.74 384.31C264.79 368.53 270.6 357.13 283.6 345.13C287.73 341.31 291.4 337.2 294.95 333.22C302.55 324.7 309.72 316.65 320.85 311.66C327.56 308.65 333.59 301.98 339.96 294.91C348.13 285.85 356.59 276.48 366.91 275.1C377.07 273.74 388.56 277.74 399.65 281.61C407.26 284.27 415.13 287.01 422.42 287.95C430.26 288.97 439.82 286.7 449.07 284.52C460.57 281.8 472.47 278.99 481.07 282.59C497.96 289.65 520.75 300.34 533.34 311.13C548.31 323.96 563.54 349.2 569.38 359.47C574.01 367.58 566.99 379.91 559.57 392.96C553.4 403.8 547.02 415.01 548.42 422.91C549.09 426.68 549.85 430.26 550.58 433.73C552.98 445.04 555.25 455.73 553.47 469.57C552.44 477.52 555.16 486.63 557.79 495.43C561.12 506.6 564.57 518.16 560.43 527.61C556.31 537 543.92 540.71 531.94 544.29C522.02 547.26 511.77 550.33 506.6 556.55C502.54 561.44 499.32 566.34 496.21 571.07C490.36 579.98 484.84 588.39 474.83 594.91C463.58 602.23 453.38 604.11 441.57 606.28C437.21 607.08 432.7 607.91 427.86 609.07C410.51 613.24 399.49 613.77 380.67 611.34C372.38 610.27 362.7 614.21 353.36 618.02C345.23 621.34 336.9 624.74 329.45 624.74V624.73ZM371.15 276.15C369.77 276.15 368.42 276.23 367.09 276.41C357.25 277.73 348.96 286.91 340.95 295.8C334.48 302.97 328.37 309.74 321.4 312.87C310.53 317.74 303.44 325.69 295.94 334.1C292.37 338.1 288.68 342.24 284.5 346.1C271.67 357.94 265.9 369.25 257.92 384.91C255.64 389.37 253.14 393.47 250.71 397.43C244.87 406.98 239.35 416.01 237.7 428.79C235.84 443.23 238.59 455.68 241.51 468.85C242.33 472.54 243.17 476.35 243.94 480.31C245.18 486.71 245.69 493.09 246.19 499.26C247.13 511 248.01 522.09 253.59 532.74C255.5 536.38 257.33 540.11 259.11 543.71C265.62 556.91 271.77 569.37 281.8 579.69C286.31 584.33 290.55 589.84 294.65 595.18C302.5 605.39 310.63 615.95 321.32 621.55C330.03 626.12 341.13 621.58 352.88 616.79C362.38 612.92 372.16 608.92 380.86 610.03C399.48 612.43 410.4 611.91 427.57 607.79C432.44 606.62 436.97 605.79 441.35 604.98C453.02 602.83 463.1 600.98 474.12 593.8C483.9 587.43 489.35 579.13 495.12 570.34C498.25 565.57 501.49 560.64 505.59 555.69C511.01 549.16 521.46 546.03 531.57 543.01C543.27 539.51 555.36 535.89 559.23 527.06C563.18 518.06 559.8 506.73 556.53 495.79C553.87 486.85 551.11 477.61 552.17 469.38C553.93 455.77 551.68 445.19 549.3 433.99C548.56 430.52 547.8 426.92 547.13 423.13C545.64 414.76 552.15 403.34 558.43 392.3C565.35 380.15 572.5 367.58 568.25 360.12C563.71 352.16 547.72 325.18 532.49 312.13C520.03 301.45 497.38 290.83 480.57 283.81C472.37 280.39 460.69 283.14 449.39 285.81C440.03 288.02 430.36 290.31 422.27 289.27C414.84 288.31 406.91 285.54 399.23 282.86C389.76 279.56 380 276.15 371.16 276.15H371.15Z" fill="#AEBA75"/>
<path d="M321.44 644.53C317.98 644.53 314.69 643.87 311.66 642.29C299.39 635.86 290.19 623.9 281.29 612.33C276.71 606.38 271.98 600.22 266.98 595.08C255.58 583.34 248.63 569.26 241.28 554.35C239.3 550.32 237.24 546.16 235.11 542.1C228.72 529.9 227.72 517.33 226.66 504.01C226.11 497.13 225.54 490.01 224.16 482.91C223.3 478.49 222.36 474.22 221.44 470.1C218.14 455.2 215.03 441.12 217.15 424.69C219.04 410.06 225.3 399.81 231.93 388.97C234.63 384.55 237.43 379.98 239.96 375.02C248.99 357.33 255.51 344.55 270.07 331.1C274.71 326.82 278.82 322.21 282.8 317.74C291.32 308.19 299.36 299.17 311.83 293.58C319.38 290.2 326.14 282.71 333.29 274.78C342.45 264.63 351.91 254.14 363.45 252.59C374.85 251.06 387.7 255.55 400.14 259.89C408.68 262.87 417.51 265.95 425.69 267.01C434.51 268.15 445.23 265.61 455.61 263.16C468.5 260.11 481.83 256.97 491.44 260.99C510.38 268.91 535.92 280.89 550.04 292.99C566.81 307.36 583.89 335.67 590.45 347.18C595.62 356.24 587.76 370.05 579.44 384.66C572.51 396.83 565.35 409.41 566.92 418.3C567.67 422.53 568.52 426.55 569.35 430.43C572.04 443.11 574.59 455.09 572.59 470.59C571.44 479.53 574.48 489.74 577.43 499.63C581.16 512.15 585.02 525.09 580.39 535.67C575.79 546.17 561.91 550.32 548.49 554.33C537.36 557.66 525.84 561.1 520.03 568.11C515.48 573.59 511.87 579.09 508.37 584.41C501.82 594.39 495.63 603.82 484.41 611.13C471.81 619.33 460.37 621.44 447.14 623.87C442.25 624.77 437.19 625.7 431.76 627C412.31 631.67 399.96 632.27 378.87 629.54C369.52 628.34 358.69 632.75 348.2 637.03C339.08 640.75 329.75 644.56 321.41 644.56L321.44 644.53ZM368.2 253.58C366.65 253.58 365.13 253.67 363.64 253.87C352.58 255.35 343.28 265.66 334.28 275.63C327.03 283.67 320.18 291.26 312.38 294.76C300.17 300.23 292.21 309.15 283.79 318.6C279.79 323.09 275.65 327.73 270.97 332.05C256.57 345.34 250.1 358.03 241.14 375.6C238.59 380.6 235.78 385.2 233.06 389.64C226.51 400.36 220.32 410.49 218.46 424.84C216.37 441.05 219.46 455.01 222.73 469.8C223.65 473.94 224.59 478.21 225.45 482.65C226.85 489.82 227.42 496.98 227.97 503.9C229.02 517.07 230.02 529.52 236.28 541.48C238.41 545.56 240.47 549.73 242.46 553.76C249.77 568.58 256.67 582.57 267.93 594.16C272.98 599.36 277.74 605.54 282.34 611.52C291.15 622.98 300.27 634.83 312.28 641.12C322.08 646.26 334.54 641.17 347.75 635.79C358.39 631.45 369.41 626.98 379.08 628.21C399.98 630.91 412.22 630.33 431.49 625.69C436.95 624.38 442.03 623.45 446.94 622.54C460.04 620.13 471.35 618.05 483.73 609.99C494.72 602.84 500.83 593.52 507.31 583.66C510.82 578.31 514.45 572.79 519.05 567.24C525.12 559.93 536.83 556.43 548.15 553.04C561.28 549.11 574.86 545.05 579.22 535.11C583.66 524.98 579.87 512.27 576.2 499.98C573.21 489.97 570.12 479.61 571.31 470.4C573.28 455.12 570.76 443.25 568.09 430.68C567.26 426.78 566.41 422.76 565.65 418.5C563.99 409.14 571.27 396.35 578.32 383.98C586.09 370.33 594.13 356.21 589.33 347.8C584.23 338.87 566.29 308.59 549.2 293.96C535.22 281.98 509.81 270.06 490.95 262.18C481.73 258.32 468.61 261.43 455.93 264.42C445.44 266.9 434.6 269.47 425.54 268.29C417.22 267.21 408.33 264.11 399.72 261.11C389.09 257.4 378.14 253.58 368.21 253.58H368.2Z" fill="#AEBA75"/>
<path d="M309.65 667.13C306.59 667.13 303.69 666.51 300.97 665.08C287.94 658.25 278.6 644.74 269.57 631.68C264.28 624.03 258.82 616.12 252.78 609.9C241.02 597.8 234.23 583.15 227.04 567.65C224.39 561.95 221.66 556.05 218.67 550.35C211.92 537.45 211.62 524.19 211.3 510.14C211.11 501.77 210.91 493.12 209.24 484.49C208.02 478.22 206.55 472.34 205.13 466.66C201.42 451.84 197.92 437.84 200.1 420.94C202.07 405.65 209 395.52 216.34 384.8C220 379.45 223.78 373.93 227 367.61C228.07 365.52 229.09 363.5 230.07 361.54C238.43 344.95 244.48 332.96 258.91 319.63C264.66 314.32 269.4 308.37 273.99 302.61C282.28 292.19 290.12 282.35 303.23 276.48C311.83 272.62 319.24 262.61 327.08 252C336.66 239.04 346.57 225.63 359.17 223.94C371.48 222.3 385.57 228.28 399.21 234.06C409.31 238.34 419.74 242.77 429.24 243.99C439.28 245.28 452.16 241.06 464.62 236.97C479.38 232.12 494.65 227.12 505.14 231.5C538.83 245.59 561.01 257.4 572.92 267.61C589.96 282.21 609.02 313.34 618.87 330.6C624.55 340.55 612.88 356.88 600.53 374.16C589.91 389.01 578.94 404.36 580.72 414.4C581.75 420.24 583.07 425.56 584.34 430.71C587.43 443.24 590.35 455.07 588.29 471.06C586.97 481.25 592 493.3 596.85 504.96C602.72 519.03 608.78 533.58 603.73 545.11C598.68 556.63 581.36 559.67 564.6 562.62C550.21 565.15 535.32 567.77 528.75 575.69C523.17 582.41 519.28 589.22 515.53 595.8C509.48 606.41 503.76 616.42 491.95 624.11C478.96 632.56 467.6 634.11 454.44 635.9C448.13 636.76 441.62 637.65 434.38 639.38C412.78 644.57 401.68 645.09 377.86 642.01C367.2 640.64 354.35 647.74 341.91 654.59C330.33 660.98 319.24 667.1 309.64 667.1L309.65 667.13ZM363.48 224.99C362.08 224.99 360.71 225.08 359.36 225.26C347.31 226.88 337.57 240.05 328.15 252.79C320.2 263.54 312.69 273.69 303.78 277.69C290.97 283.43 283.23 293.15 275.03 303.44C270.42 309.24 265.64 315.23 259.82 320.61C245.56 333.78 239.56 345.67 231.26 362.14C230.27 364.1 229.26 366.12 228.18 368.21C224.92 374.61 221.11 380.17 217.43 385.55C210.19 396.14 203.34 406.14 201.41 421.12C199.26 437.77 202.73 451.65 206.41 466.35C207.84 472.05 209.31 477.94 210.54 484.24C212.24 492.98 212.44 501.69 212.63 510.11C212.94 523.99 213.24 537.11 219.85 549.73C222.85 555.46 225.59 561.37 228.24 567.09C235.38 582.48 242.13 597.03 253.73 608.97C259.84 615.26 265.34 623.22 270.66 630.92C279.6 643.85 288.84 657.23 301.59 663.9C312.24 669.48 326.36 661.69 341.3 653.45C353.92 646.48 366.95 639.27 378.05 640.71C401.67 643.75 412.67 643.25 434.09 638.11C441.39 636.36 447.94 635.47 454.28 634.6C467.28 632.83 478.51 631.3 491.25 623.01C502.79 615.5 508.43 605.62 514.4 595.15C518.19 588.52 522.1 581.66 527.76 574.85C534.65 566.56 549.77 563.9 564.4 561.33C580.81 558.45 597.79 555.46 602.55 544.59C607.38 533.58 601.42 519.29 595.66 505.48C590.73 493.66 585.64 481.45 587 470.91C589.03 455.17 586.14 443.45 583.08 431.05C581.8 425.88 580.48 420.53 579.44 414.65C577.56 404.07 588.7 388.49 599.48 373.42C611.05 357.24 623.01 340.5 617.75 331.28C607.95 314.1 588.98 283.11 572.09 268.64C554.54 253.6 516.99 237.9 504.66 232.74C494.62 228.54 479.59 233.48 465.06 238.24C452.47 242.37 439.44 246.64 429.1 245.31C419.42 244.06 408.9 239.6 398.72 235.28C386.77 230.21 374.45 224.99 363.49 224.99H363.48Z" fill="#AEBA75"/>
<path d="M299.38 691.72C295.97 691.72 292.73 691.03 289.69 689.44C275.11 681.8 264.67 666.69 254.56 652.07C248.64 643.5 242.51 634.64 235.74 627.67C222.58 614.13 214.98 597.74 206.93 580.39C203.97 574 200.91 567.4 197.56 561.02C190.01 546.6 189.67 531.75 189.31 516.04C189.1 506.66 188.88 496.97 187 487.3C185.63 480.27 183.99 473.69 182.4 467.33C178.25 450.75 174.33 435.08 176.77 416.17C178.98 399.07 186.73 387.74 194.94 375.74C199.04 369.75 203.27 363.57 206.88 356.49C208.07 354.15 209.21 351.89 210.32 349.7C219.68 331.12 226.45 317.7 242.6 302.79C249.05 296.84 254.36 290.17 259.49 283.72C268.77 272.06 277.54 261.05 292.2 254.48C301.85 250.15 310.15 238.93 318.94 227.04C329.66 212.54 340.75 197.54 354.83 195.65C368.59 193.82 384.36 200.5 399.62 206.98C410.93 211.78 422.62 216.74 433.28 218.11C444.54 219.56 458.97 214.83 472.92 210.25C489.44 204.83 506.52 199.22 518.24 204.12C555.95 219.89 580.78 233.11 594.12 244.54C613.19 260.88 634.53 295.73 645.55 315.05C651.88 326.15 638.83 344.41 625.01 363.74C613.12 380.38 600.82 397.58 602.81 408.85C603.97 415.39 605.44 421.36 606.87 427.12C610.33 441.14 613.6 454.38 611.29 472.27C609.81 483.7 615.44 497.2 620.89 510.26C627.45 526 634.24 542.28 628.59 555.16C622.95 568.02 603.57 571.43 584.83 574.72C568.7 577.56 552.02 580.49 544.64 589.38C538.39 596.91 534.03 604.54 529.82 611.91C523.05 623.78 516.65 634.98 503.44 643.58C488.91 653.04 476.19 654.77 461.47 656.78C454.41 657.74 447.1 658.74 439 660.68C414.81 666.49 402.39 667.06 375.74 663.62C363.84 662.11 349.38 670.03 335.44 677.72C322.49 684.87 310.08 691.72 299.34 691.72H299.38ZM359.65 196.64C358.08 196.64 356.54 196.73 355.03 196.94C341.5 198.75 330.59 213.52 320.03 227.8C311.14 239.83 302.74 251.19 292.77 255.66C278.4 262.1 269.73 272.99 260.55 284.52C255.38 291.01 250.04 297.71 243.52 303.74C227.54 318.49 220.82 331.83 211.52 350.28C210.42 352.47 209.28 354.73 208.08 357.07C204.43 364.23 200.17 370.45 196.05 376.47C187.93 388.33 180.26 399.54 178.1 416.33C175.69 434.99 179.58 450.54 183.69 467C185.29 473.38 186.94 479.98 188.31 487.04C190.21 496.82 190.43 506.57 190.64 516C190.99 531.56 191.32 546.25 198.74 560.4C202.1 566.81 205.17 573.43 208.14 579.83C216.14 597.08 223.7 613.37 236.7 626.75C243.54 633.79 249.7 642.7 255.65 651.32C265.66 665.81 276.02 680.79 290.31 688.28C302.27 694.56 318.1 685.82 334.85 676.58C348.97 668.79 363.54 660.7 375.96 662.33C402.42 665.74 414.73 665.17 438.74 659.41C446.91 657.45 454.24 656.45 461.34 655.48C475.91 653.5 488.49 651.78 502.77 642.48C515.71 634.06 522.03 622.98 528.72 611.26C532.96 603.84 537.34 596.16 543.67 588.54C551.36 579.28 568.29 576.3 584.65 573.43C603.05 570.2 622.08 566.85 627.43 554.64C632.85 542.28 626.17 526.26 619.72 510.78C614.21 497.56 608.51 483.89 610.03 472.11C612.31 454.47 609.06 441.34 605.63 427.45C604.2 421.66 602.72 415.68 601.55 409.09C599.46 397.27 611.92 379.84 623.97 362.98C636.94 344.84 650.35 326.08 644.44 315.71C633.46 296.47 612.22 261.76 593.29 245.55C580.05 234.21 555.35 221.06 517.76 205.34C506.5 200.64 489.65 206.16 473.36 211.5C459.27 216.13 444.71 220.91 433.13 219.42C422.3 218.02 410.52 213.03 399.13 208.2C385.74 202.52 371.94 196.67 359.65 196.67V196.64Z" fill="#AEBA75"/>
<path d="M290.84 712.18C287.13 712.18 283.61 711.43 280.32 709.7C264.46 701.39 253.08 684.93 242.08 669.02C235.63 659.68 228.96 650.03 221.58 642.44C207.26 627.7 198.98 609.86 190.22 590.96C186.99 584 183.65 576.81 180.01 569.86C171.79 554.16 171.42 538.01 171.04 520.9C170.81 510.69 170.57 500.13 168.52 489.59C167.03 481.93 165.24 474.77 163.5 467.83C158.98 449.78 154.72 432.73 157.38 412.15C159.78 393.54 168.22 381.2 177.16 368.15C181.63 361.63 186.24 354.89 190.17 347.17C191.47 344.62 192.71 342.16 193.91 339.78C204.1 319.56 211.47 304.95 229.06 288.71C236.09 282.22 241.87 274.96 247.46 267.94C257.57 255.25 267.11 243.27 283.06 236.11C293.58 231.39 302.63 219.16 312.2 206.21C323.87 190.42 335.94 174.1 351.24 172.05C366.2 170.04 383.38 177.33 399.99 184.38C412.31 189.6 425.05 195.01 436.65 196.5C448.92 198.08 464.65 192.93 479.85 187.94C497.83 182.04 516.41 175.93 529.16 181.27C570.24 198.45 597.26 212.85 611.78 225.28C632.55 243.07 655.78 281.01 667.78 302.05C674.66 314.11 660.46 333.97 645.42 355.01C632.46 373.14 619.05 391.89 621.24 404.18C622.5 411.31 624.11 417.8 625.66 424.09C629.43 439.35 632.99 453.76 630.48 473.23C628.87 485.7 635 500.41 640.93 514.64C648.07 531.77 655.46 549.48 649.32 563.48C643.2 577.45 622.11 581.16 601.71 584.75C584.13 587.84 565.96 591.03 557.9 600.74C551.08 608.95 546.34 617.26 541.75 625.29C534.38 638.2 527.42 650.4 513.05 659.76C497.24 670.05 483.4 671.94 467.37 674.12C459.68 675.17 451.72 676.25 442.9 678.37C416.57 684.7 403.05 685.32 374.03 681.57C361.02 679.9 345.29 688.55 330.11 696.93C316.01 704.71 302.5 712.17 290.83 712.17L290.84 712.18ZM356.47 173.04C354.76 173.04 353.08 173.15 351.42 173.37C336.67 175.35 324.77 191.44 313.26 207.01C303.58 220.1 294.44 232.47 283.6 237.33C267.94 244.35 258.49 256.21 248.49 268.77C242.86 275.83 237.05 283.14 229.95 289.69C212.53 305.76 205.22 320.29 195.08 340.39C193.88 342.77 192.64 345.23 191.34 347.78C187.37 355.57 182.73 362.35 178.24 368.91C169.39 381.83 161.04 394.04 158.68 412.34C156.05 432.67 160.29 449.6 164.78 467.53C166.52 474.48 168.32 481.66 169.81 489.35C171.88 500 172.12 510.61 172.35 520.88C172.73 537.83 173.1 553.84 181.17 569.26C184.82 576.24 188.17 583.45 191.4 590.42C200.12 609.2 208.35 626.95 222.51 641.53C229.96 649.2 236.66 658.9 243.14 668.28C254.05 684.06 265.33 700.38 280.91 708.54C293.97 715.39 311.21 705.87 329.47 695.8C344.84 687.32 360.73 678.55 374.2 680.28C403.02 684 416.45 683.38 442.59 677.1C451.48 674.97 459.47 673.88 467.19 672.83C483.06 670.67 496.77 668.8 512.33 658.67C526.43 649.49 533.32 637.42 540.61 624.65C545.22 616.57 550 608.21 556.88 599.91C565.24 589.84 583.66 586.6 601.47 583.47C621.52 579.94 642.26 576.3 648.1 562.97C654.01 549.48 646.74 532.04 639.7 515.16C633.7 500.77 627.5 485.89 629.15 473.08C631.63 453.86 628.1 439.56 624.36 424.42C622.8 418.12 621.19 411.6 619.92 404.43C617.64 391.59 631.21 372.61 644.33 354.26C658.46 334.49 673.08 314.05 666.62 302.72C654.66 281.76 631.52 243.96 610.91 226.29C589.5 207.94 543.69 188.79 528.64 182.49C516.35 177.36 498 183.38 480.25 189.2C464.91 194.24 449.08 199.44 436.47 197.82C424.69 196.3 411.86 190.86 399.46 185.6C384.87 179.41 369.83 173.04 356.44 173.04H356.47Z" fill="#AEBA75"/>
<path d="M282.21 732.85C278.21 732.85 274.41 732.04 270.85 730.18C253.69 721.19 241.38 703.38 229.48 686.16C222.5 676.05 215.27 665.6 207.28 657.38C191.78 641.43 182.82 622.12 173.34 601.67C169.85 594.14 166.23 586.35 162.29 578.82C153.4 561.84 153.01 544.35 152.59 525.84C152.34 514.78 152.08 503.35 149.86 491.94C148.25 483.65 146.31 475.89 144.43 468.39C139.54 448.85 134.93 430.4 137.8 408.13C140.4 387.99 149.53 374.65 159.2 360.51C164.03 353.45 169.03 346.15 173.29 337.8C174.7 335.04 176.04 332.37 177.34 329.79C188.37 307.91 196.34 292.09 215.37 274.52C222.98 267.5 229.24 259.63 235.3 252.03C246.23 238.3 256.56 225.33 273.81 217.59C285.22 212.48 295.01 199.23 305.38 185.21C318.01 168.13 331.06 150.47 347.61 148.25C363.78 146.1 382.38 153.97 400.36 161.6C413.7 167.25 427.49 173.1 440.06 174.73C453.38 176.44 470.39 170.86 486.85 165.46C506.31 159.08 526.42 152.47 540.19 158.23C584.65 176.82 613.9 192.4 629.62 205.87C652.1 225.13 677.24 266.2 690.23 288.97C697.66 301.99 682.3 323.49 666.03 346.24C651.99 365.88 637.48 386.18 639.84 399.51C641.21 407.23 642.95 414.26 644.62 421.06C648.7 437.57 652.55 453.17 649.83 474.24C648.09 487.75 654.73 503.68 661.15 519.09C668.88 537.63 676.87 556.79 670.23 571.93C663.61 587.03 640.79 591.04 618.73 594.92C599.69 598.27 580 601.73 571.27 612.25C563.89 621.14 558.76 630.13 553.79 638.83C545.82 652.81 538.28 666.01 522.74 676.13C505.64 687.27 490.66 689.31 473.31 691.67C464.98 692.8 456.37 693.98 446.81 696.27C418.31 703.11 403.68 703.79 372.27 699.74C358.13 697.94 341.14 707.3 324.69 716.38C309.43 724.8 294.82 732.87 282.19 732.87L282.21 732.85ZM353.26 149.2C351.41 149.2 349.58 149.31 347.79 149.55C331.8 151.69 318.91 169.13 306.44 185.98C295.97 200.15 286.07 213.53 274.35 218.79C257.39 226.39 247.16 239.24 236.33 252.84C230.24 260.48 223.95 268.39 216.26 275.48C197.4 292.89 189.48 308.61 178.51 330.38C177.21 332.96 175.86 335.63 174.45 338.39C170.15 346.82 165.13 354.16 160.28 361.25C150.7 375.25 141.65 388.47 139.09 408.29C136.25 430.31 140.83 448.65 145.69 468.06C147.57 475.58 149.52 483.35 151.13 491.68C153.37 503.2 153.63 514.69 153.88 525.8C154.29 544.15 154.69 561.49 163.44 578.2C167.4 585.76 171.02 593.56 174.52 601.1C183.96 621.44 192.87 640.65 208.21 656.45C216.27 664.75 223.53 675.25 230.54 685.4C242.36 702.49 254.57 720.17 271.44 729.01C285.6 736.44 304.28 726.13 324.05 715.21C340.68 706.03 357.85 696.52 372.44 698.42C403.66 702.45 418.19 701.77 446.5 694.98C456.12 692.67 464.77 691.49 473.13 690.35C490.32 688.01 505.16 685.99 522.02 675.01C537.3 665.06 544.75 652 552.65 638.16C557.64 629.41 562.81 620.36 570.26 611.39C579.3 600.5 599.23 597 618.5 593.61C640.22 589.79 662.68 585.84 669.02 571.39C675.43 556.77 667.55 537.87 659.93 519.59C653.44 504.02 646.73 487.92 648.52 474.06C651.21 453.24 647.39 437.76 643.34 421.37C641.66 414.55 639.91 407.49 638.54 399.73C636.08 385.85 650.76 365.31 664.95 345.46C680.26 324.04 696.09 301.9 689.08 289.6C676.13 266.91 651.08 225.98 628.75 206.85C605.56 186.98 555.97 166.24 539.67 159.43C526.34 153.86 506.47 160.38 487.25 166.69C470.65 172.14 453.47 177.77 439.87 176.02C427.12 174.37 413.24 168.49 399.82 162.8C384.02 156.1 367.74 149.2 353.23 149.2H353.26Z" fill="#AEBA75"/>
<path d="M273.51 753.68C269.21 753.68 265.12 752.81 261.29 750.81C242.82 741.13 229.57 721.96 216.76 703.42C209.23 692.53 201.46 681.28 192.85 672.42C176.17 655.25 166.52 634.45 156.31 612.44C152.55 604.33 148.66 595.95 144.42 587.84C134.85 569.57 134.42 550.74 133.97 530.81C133.7 518.9 133.42 506.59 131.03 494.3C129.3 485.38 127.21 477.02 125.19 468.94C119.93 447.9 114.96 428.03 118.05 404.06C120.85 382.39 130.68 368.02 141.09 352.81C146.29 345.21 151.67 337.34 156.27 328.34C157.79 325.36 159.23 322.49 160.64 319.71C172.51 296.15 181.09 279.13 201.58 260.21C209.78 252.64 216.52 244.17 223.05 235.98C234.82 221.2 245.94 207.24 264.51 198.91C276.8 193.4 287.35 179.13 298.52 164.02C312.11 145.64 326.16 126.63 343.96 124.24C361.39 121.92 381.38 130.4 400.73 138.61C415.1 144.7 429.96 151 443.5 152.75C457.86 154.61 476.18 148.58 493.91 142.77C514.85 135.89 536.49 128.79 551.32 134.99C599.19 155.01 630.68 171.78 647.6 186.28C671.8 207.01 698.87 251.23 712.86 275.75C720.85 289.75 704.31 312.88 686.8 337.37C671.68 358.52 656.04 380.4 658.59 394.78C660.06 403.09 661.94 410.67 663.74 417.99C668.13 435.77 672.28 452.56 669.35 475.23C667.47 489.79 674.63 506.95 681.55 523.55C689.86 543.5 698.47 564.13 691.33 580.41C684.21 596.65 659.66 600.96 635.91 605.14C615.4 608.75 594.19 612.47 584.78 623.81C576.83 633.38 571.3 643.08 565.95 652.45C557.36 667.49 549.25 681.71 532.53 692.6C514.12 704.59 497.99 706.78 479.32 709.33C470.35 710.55 461.08 711.82 450.79 714.29C420.1 721.65 404.35 722.39 370.55 718.02C355.37 716.07 337 726.16 319.28 735.94C302.86 745 287.12 753.69 273.54 753.69L273.51 753.68ZM350.02 125.18C348.02 125.18 346.06 125.3 344.12 125.56C326.88 127.87 312.99 146.65 299.56 164.81C288.29 180.06 277.64 194.47 265.03 200.12C246.75 208.31 235.73 222.15 224.06 236.8C217.51 245.03 210.73 253.54 202.46 261.17C182.15 279.92 173.61 296.85 161.8 320.29C160.4 323.07 158.95 325.94 157.43 328.92C152.8 338 147.4 345.9 142.17 353.53C131.85 368.61 122.11 382.85 119.35 404.21C116.29 427.93 121.23 447.69 126.46 468.6C128.49 476.7 130.58 485.07 132.32 494.02C134.73 506.42 135.01 518.79 135.28 530.75C135.73 550.52 136.15 569.19 145.58 587.19C149.84 595.32 153.73 603.72 157.5 611.84C167.67 633.75 177.26 654.45 193.79 671.46C202.47 680.39 210.28 691.7 217.83 702.63C230.55 721.04 243.71 740.08 261.89 749.6C277.16 757.61 297.29 746.5 318.6 734.74C336.51 724.86 355 714.65 370.67 716.66C404.28 721 419.94 720.27 450.43 712.95C460.79 710.46 470.1 709.2 479.1 707.97C497.62 705.45 513.61 703.27 531.77 691.44C548.23 680.72 556.26 666.65 564.77 651.75C570.15 642.33 575.71 632.59 583.73 622.92C593.45 611.21 614.9 607.44 635.65 603.79C659.06 599.67 683.26 595.42 690.09 579.83C697 564.07 688.51 543.7 680.3 524.01C673.31 507.25 666.09 489.92 668.01 475.01C670.9 452.58 666.79 435.91 662.43 418.25C660.62 410.9 658.74 403.31 657.26 394.95C654.61 380.02 670.41 357.92 685.69 336.54C702.19 313.47 719.25 289.61 711.68 276.34C697.74 251.9 670.75 207.82 646.71 187.22C629.9 172.82 598.52 156.11 550.78 136.15C536.42 130.14 515 137.17 494.29 143.97C476.42 149.83 457.93 155.88 443.3 154.01C429.58 152.24 414.63 145.9 400.18 139.77C383.16 132.55 365.63 125.12 349.99 125.12L350.02 125.18Z" fill="#AEBA75"/>
<path d="M258.89 779.41C254.25 779.41 249.85 778.47 245.73 776.3C225.89 765.85 211.69 745.15 197.95 725.13C189.88 713.37 181.54 701.21 172.29 691.64C154.42 673.13 144.12 650.73 133.22 627.02C129.18 618.24 125.01 609.16 120.45 600.39C110.23 580.72 109.83 560.48 109.4 539.04C109.15 526.18 108.89 512.89 106.33 499.61C104.47 489.95 102.22 480.9 100.04 472.15C94.41 449.52 89.09 428.15 92.42 402.4C95.43 379.12 105.98 363.65 117.16 347.28C122.77 339.06 128.58 330.55 133.52 320.82C135.18 317.55 136.76 314.39 138.29 311.34C150.98 286 160.16 267.7 182.07 247.33C190.88 239.14 198.12 229.98 205.12 221.12C217.71 205.17 229.61 190.11 249.54 181.11C262.77 175.13 274.1 159.7 286.09 143.37C300.66 123.52 315.74 102.99 334.87 100.4C353.6 97.87 375.19 107.01 396.06 115.85C411.53 122.41 427.53 129.19 442.1 131.07C457.52 133.05 477.3 126.58 496.42 120.32C519.01 112.91 542.36 105.26 558.29 111.96C609.78 133.6 643.68 151.76 661.92 167.49C687.87 189.87 716.88 237.63 731.87 264.1C740.39 279.15 722.48 303.99 703.53 330.3C687.11 353.08 670.14 376.63 672.86 392.16C674.44 401.15 676.45 409.35 678.4 417.28C683.1 436.41 687.54 454.48 684.39 478.83C682.36 494.54 690.12 513.05 697.62 530.95C706.61 552.41 715.91 574.6 708.27 592.11C700.65 609.59 674.19 614.28 648.6 618.82C626.48 622.74 603.61 626.8 593.5 639.05C584.95 649.41 579.02 659.89 573.29 670.02C564.11 686.24 555.45 701.55 537.51 713.32C517.72 726.3 500.38 728.7 480.3 731.48C470.66 732.81 460.68 734.19 449.62 736.88C416.63 744.87 399.7 745.68 363.38 740.99C347.01 738.9 327.24 749.77 308.15 760.31C290.46 770.08 273.52 779.43 258.9 779.43L258.89 779.41ZM341.48 101.27C339.3 101.27 337.16 101.4 335.05 101.69C316.48 104.21 301.57 124.51 287.16 144.14C275.07 160.61 263.64 176.17 250.09 182.3C230.45 191.18 218.66 206.12 206.17 221.93C199.14 230.83 191.87 240.03 182.98 248.3C161.24 268.5 152.11 286.72 139.48 311.93C137.95 314.98 136.37 318.14 134.7 321.42C129.73 331.23 123.9 339.77 118.26 348.03C107.17 364.27 96.7 379.61 93.74 402.58C90.45 428.09 95.73 449.34 101.33 471.84C103.51 480.61 105.76 489.67 107.63 499.37C110.21 512.76 110.47 526.11 110.72 539.02C111.14 560.3 111.54 580.4 121.62 599.79C126.2 608.59 130.38 617.68 134.42 626.47C145.28 650.08 155.53 672.38 173.24 690.73C182.56 700.38 190.94 712.59 199.03 724.39C212.68 744.28 226.79 764.84 246.34 775.13C262.83 783.81 284.52 771.82 307.5 759.14C326.78 748.5 346.69 737.5 363.54 739.67C399.67 744.34 416.5 743.53 449.3 735.58C460.43 732.88 470.44 731.5 480.11 730.16C500.03 727.4 517.24 725.03 536.78 712.21C554.45 700.62 563.04 685.44 572.14 669.37C577.9 659.19 583.86 648.66 592.49 638.21C602.91 625.58 626.02 621.49 648.37 617.52C673.62 613.04 699.72 608.42 707.06 591.58C714.47 574.59 705.29 552.66 696.4 531.46C688.83 513.4 681.01 494.72 683.08 478.66C686.19 454.55 681.78 436.6 677.12 417.59C675.17 409.64 673.15 401.42 671.56 392.38C668.74 376.3 685.88 352.52 702.46 329.52C720.34 304.71 738.83 279.06 730.72 264.74C715.78 238.34 686.86 190.72 661.06 168.48C642.92 152.84 609.14 134.75 557.78 113.16C542.3 106.65 519.19 114.23 496.83 121.56C477.58 127.87 457.66 134.39 441.93 132.37C427.18 130.47 411.1 123.65 395.55 117.06C377.21 109.29 358.31 101.28 341.47 101.28L341.48 101.27Z" fill="#AEBA75"/>
<path d="M249.53 809.4C244.5 809.4 239.72 808.39 235.25 806.06C213.4 794.67 197.68 772.06 182.49 750.18C173.52 737.27 164.25 723.93 154 713.46C134.16 693.21 122.66 668.67 110.49 642.68C106 633.09 101.35 623.17 96.28 613.58C84.85 591.97 84.31 569.69 83.75 546.11C83.41 532.04 83.07 517.5 80.22 502.98C78.15 492.45 75.67 482.61 73.27 473.09C67 448.23 61.09 424.75 64.82 396.36C68.2 370.69 79.94 353.81 92.38 335.92C98.59 326.99 105.01 317.76 110.52 307.15C112.33 303.66 114.06 300.3 115.73 297.04C129.96 269.31 140.24 249.28 164.77 227.08C174.57 218.21 182.65 208.24 190.47 198.59C204.55 181.22 217.84 164.82 239.92 155.15C254.57 148.74 267.19 131.86 280.56 113.98C296.77 92.3001 313.54 69.8801 334.59 67.1901C355.09 64.5501 378.69 74.7201 401.48 84.5401C418.53 91.8801 436.16 99.4801 452.27 101.6C469.34 103.84 491.11 96.6501 512.17 89.7001C536.89 81.5401 562.45 73.0901 579.93 80.3801C616.25 95.5101 667.59 118.23 694.03 140.68C722.79 165.1 755.12 217.34 771.83 246.3C781.35 262.81 761.76 290.32 741.01 319.46C723.11 344.6 704.6 370.59 707.65 387.62C709.41 397.44 711.63 406.36 713.78 414.98C719 435.96 723.94 455.77 720.4 482.62C718.13 499.86 726.57 520.22 734.73 539.9C744.54 563.57 754.69 588.04 746.13 607.24C737.62 626.33 708.48 631.14 680.3 635.8C655.89 639.83 630.65 644 619.34 657.37C609.84 668.61 603.21 680.02 596.8 691.06C586.52 708.76 576.81 725.48 556.88 738.18C535.09 752.07 516.03 754.49 493.97 757.29C483.25 758.65 472.17 760.06 459.86 762.92C423.92 771.26 404.36 772.08 364.71 766.86C346.59 764.46 324.81 776.55 303.73 788.24C284.25 799.04 265.6 809.38 249.52 809.38L249.53 809.4ZM341.4 68.1001C339.15 68.1001 336.94 68.2301 334.76 68.5101C314.26 71.1301 297.67 93.3201 281.62 114.78C268.15 132.8 255.42 149.81 240.45 156.37C218.67 165.9 205.47 182.19 191.49 199.43C183.64 209.12 175.52 219.13 165.65 228.07C141.3 250.11 131.06 270.05 116.9 297.65C115.23 300.91 113.5 304.27 111.69 307.76C106.14 318.44 99.7 327.71 93.46 336.67C81.12 354.42 69.46 371.18 66.13 396.53C62.43 424.66 68.31 448.03 74.55 472.76C76.95 482.29 79.44 492.16 81.51 502.72C84.38 517.35 84.73 531.95 85.07 546.07C85.63 569.49 86.16 591.62 97.44 612.96C102.52 622.57 107.18 632.51 111.68 642.12C123.8 668 135.25 692.45 154.94 712.54C165.27 723.08 174.58 736.48 183.58 749.43C198.68 771.17 214.3 793.65 235.86 804.89C253.98 814.33 277.84 801.11 303.1 787.11C324.36 775.32 346.38 763.14 364.89 765.58C404.8 770.84 423.39 770.07 459.57 761.67C471.95 758.79 483.07 757.38 493.82 756.02C515.72 753.24 534.64 750.84 556.18 737.1C575.84 724.57 585.47 707.99 595.67 690.43C602.11 679.35 608.77 667.89 618.35 656.55C629.97 642.81 655.45 638.6 680.1 634.53C707.94 629.93 736.72 625.18 744.94 606.74C753.27 588.06 743.23 563.85 733.53 540.44C725.31 520.59 716.8 500.07 719.11 482.48C722.61 455.87 717.71 436.18 712.51 415.32C710.36 406.67 708.13 397.73 706.36 387.87C703.21 370.29 721.88 344.07 739.94 318.71C759.53 291.2 779.79 262.75 770.69 246.98C754.02 218.09 721.79 166 693.18 141.71C666.88 119.38 615.66 96.7201 579.43 81.6201C562.41 74.5301 537.08 82.8901 512.59 90.9701C491.38 97.9701 469.46 105.21 452.11 102.93C435.81 100.78 418.1 93.1501 400.97 85.7701C380.78 77.0701 359.98 68.1101 341.4 68.1101V68.1001Z" fill="#AEBA75"/>
</svg>
